<svg width="836" height="206" viewBox="0 0 836 206" fill="none" xmlns="http://www.w3.org/2000/svg">
<path d="M154.82 1H130.46V97.56H154.82V1Z" fill="white" stroke="black" stroke-width="7"/>
<g style="mix-blend-mode:darken">
<path d="M158.08 28.2V44.2L133.72 60.2V44.2L158.08 28.2Z" fill="#E80E04"/>
</g>
<g style="mix-blend-mode:darken">
<path d="M158.08 1V17L133.72 33V17L158.08 1Z" fill="#E80E04"/>
</g>
<path d="M733.9 1H709.54V97.56H733.9V1Z" fill="white" stroke="black" stroke-width="7"/>
<g style="mix-blend-mode:darken">
<path d="M737.16 28.2V44.2L712.8 60.2V44.2L737.16 28.2Z" fill="#E80E04"/>
</g>
<g style="mix-blend-mode:darken">
<path d="M737.16 1V17L712.8 33V17L737.16 1Z" fill="#E80E04"/>
</g>
<path d="M762.54 62.37H73.88C35.2863 62.37 4 93.6563 4 132.25C4 170.844 35.2863 202.13 73.88 202.13H762.54C801.134 202.13 832.42 170.844 832.42 132.25C832.42 93.6563 801.134 62.37 762.54 62.37Z" fill="white" stroke="black" stroke-width="7"/>
<g style="mix-blend-mode:darken">
<path d="M763.69 185.19H75.04C39.47 185.19 9.91 158.25 5.69 123.78C5.35 126.56 5.15 129.38 5.15 132.25C5.15 170.69 36.6 202.13 75.03 202.13H763.69C802.13 202.13 833.57 170.68 833.57 132.25C833.57 129.38 833.37 126.56 833.03 123.78C828.81 158.26 799.25 185.19 763.68 185.19H763.69Z" fill="#CBCBCB"/>
</g>
<path d="M66.66 128.13H87.15C87.15 130.24 87.06 132.15 86.89 133.87C86.71 135.59 86.36 137.19 85.84 138.66C85.1 140.73 84.1 142.57 82.84 144.16C81.58 145.76 80.09 147.09 78.39 148.16C76.69 149.23 74.82 150.05 72.78 150.61C70.74 151.17 68.6 151.45 66.35 151.45C63.26 151.45 60.44 150.94 57.89 149.92C55.34 148.9 53.16 147.47 51.33 145.63C49.5 143.79 48.08 141.57 47.06 138.99C46.04 136.41 45.53 133.56 45.53 130.43C45.53 127.3 46.03 124.5 47.03 121.92C48.03 119.34 49.45 117.14 51.3 115.31C53.14 113.48 55.36 112.06 57.96 111.04C60.56 110.02 63.46 109.51 66.65 109.51C70.79 109.51 74.43 110.41 77.55 112.2C80.68 113.99 83.15 116.77 84.98 120.52L75.18 124.58C74.27 122.4 73.08 120.84 71.62 119.89C70.16 118.94 68.5 118.47 66.64 118.47C65.09 118.47 63.69 118.76 62.43 119.34C61.17 119.92 60.09 120.74 59.19 121.82C58.29 122.89 57.59 124.18 57.08 125.69C56.57 127.2 56.32 128.89 56.32 130.75C56.32 132.44 56.54 134 56.98 135.44C57.42 136.88 58.08 138.13 58.96 139.18C59.84 140.23 60.93 141.05 62.23 141.63C63.53 142.21 65.04 142.5 66.76 142.5C67.78 142.5 68.76 142.39 69.71 142.16C70.66 141.93 71.51 141.56 72.26 141.05C73.01 140.54 73.64 139.88 74.13 139.07C74.62 138.26 74.95 137.28 75.13 136.12H66.65V128.11L66.66 128.13Z" fill="black"/>
<path d="M117.08 143.46H102.33L99.96 150.36H88.95L104.07 110.64H115.34L130.46 150.36H119.45L117.08 143.46ZM114.34 135.61L109.7 122.39L105.06 135.61H114.33H114.34Z" fill="black"/>
<path d="M133.72 150.36L140.46 110.64H150.68L158.63 131.82L166.53 110.64H176.75L183.49 150.36H173.22L169.8 127.5L160.42 150.36H156.31L147.41 127.5L143.99 150.36H133.72Z" fill="black"/>
<path d="M213.16 119.39H200.89V126.03H212.48V134.78H200.89V141.63H213.16V150.37H190.56V110.65H213.16V119.39Z" fill="black"/>
<path d="M262.15 119.39H249.88V126.03H261.47V134.78H249.88V141.63H262.15V150.37H239.55V110.65H262.15V119.39Z" fill="black"/>
<path d="M281.48 129.19L269.1 110.65H281.85L287.22 120.92L293.86 110.65H306.61L293.49 129.19L308.29 150.37H295.7L287.75 137.41L278.43 150.37H265.95L281.49 129.19H281.48Z" fill="black"/>
<path d="M323.31 150.36H312.98V110.64H329.42C333.88 110.64 337.3 111.8 339.67 114.12C342.04 116.44 343.23 119.7 343.23 123.92C343.23 128.14 342.04 131.4 339.67 133.72C337.3 136.04 333.88 137.2 329.42 137.2H323.31V150.37V150.36ZM323.31 128.87H326.73C330.52 128.87 332.42 127.22 332.42 123.92C332.42 120.62 330.52 118.97 326.73 118.97H323.31V128.87Z" fill="black"/>
<path d="M371.83 119.39H359.56V126.03H371.15V134.78H359.56V141.63H371.83V150.37H349.23V110.65H371.83V119.39Z" fill="black"/>
<path d="M412.81 150.36H399.96L390.11 135.08V150.36H379.78V110.64H395.85C398.06 110.64 399.99 110.96 401.64 111.61C403.29 112.26 404.65 113.15 405.72 114.27C406.79 115.39 407.6 116.69 408.14 118.17C408.68 119.65 408.96 121.23 408.96 122.91C408.96 125.93 408.23 128.38 406.77 130.26C405.31 132.14 403.16 133.41 400.32 134.08L412.8 150.36H412.81ZM390.11 128.39H392.06C394.1 128.39 395.66 127.97 396.75 127.13C397.84 126.29 398.38 125.08 398.38 123.5C398.38 121.92 397.84 120.71 396.75 119.87C395.66 119.03 394.1 118.61 392.06 118.61H390.11V128.41V128.39Z" fill="black"/>
<path d="M427.98 110.64V150.36H417.66V110.64H427.98Z" fill="black"/>
<path d="M435.04 150.36L441.78 110.64H452L459.96 131.82L467.86 110.64H478.08L484.82 150.36H474.55L471.13 127.5L461.75 150.36H457.64L448.74 127.5L445.32 150.36H435.05H435.04Z" fill="black"/>
<path d="M514.48 119.39H502.21V126.03H513.8V134.78H502.21V141.63H514.48V150.37H491.88V110.65H514.48V119.39Z" fill="black"/>
<path d="M522.43 150.36V110.64H532.76L551.83 134.92V110.64H562.1V150.36H551.83L532.76 126.07V150.36H522.43Z" fill="black"/>
<path d="M586.02 119.39V150.37H575.69V119.39H567.21V110.65H594.5V119.39H586.02Z" fill="black"/>
<path d="M639.85 120.81C638.73 119.9 637.6 119.22 636.48 118.78C635.36 118.34 634.27 118.12 633.21 118.12C631.88 118.12 630.79 118.44 629.94 119.07C629.1 119.7 628.68 120.53 628.68 121.55C628.68 122.25 628.89 122.83 629.31 123.29C629.73 123.75 630.28 124.14 630.97 124.48C631.65 124.81 632.43 125.1 633.29 125.35C634.15 125.6 635 125.86 635.85 126.14C639.22 127.26 641.69 128.77 643.25 130.64C644.81 132.52 645.59 134.97 645.59 137.99C645.59 140.03 645.25 141.87 644.56 143.52C643.88 145.17 642.87 146.58 641.56 147.76C640.24 148.94 638.63 149.85 636.71 150.5C634.79 151.15 632.63 151.47 630.2 151.47C625.18 151.47 620.52 149.98 616.24 146.99L620.66 138.67C622.2 140.04 623.73 141.06 625.24 141.73C626.75 142.4 628.24 142.73 629.72 142.73C631.41 142.73 632.66 142.34 633.49 141.57C634.32 140.8 634.73 139.92 634.73 138.94C634.73 138.34 634.62 137.83 634.41 137.39C634.2 136.95 633.85 136.55 633.36 136.18C632.87 135.81 632.23 135.47 631.44 135.15C630.65 134.83 629.69 134.48 628.57 134.1C627.24 133.68 625.93 133.21 624.65 132.7C623.37 132.19 622.23 131.51 621.23 130.67C620.23 129.83 619.42 128.77 618.81 127.48C618.19 126.2 617.89 124.57 617.89 122.61C617.89 120.65 618.21 118.86 618.86 117.26C619.51 115.66 620.42 114.29 621.6 113.15C622.78 112.01 624.22 111.12 625.92 110.49C627.62 109.86 629.53 109.54 631.64 109.54C633.61 109.54 635.66 109.81 637.8 110.36C639.94 110.9 642 111.7 643.96 112.76L639.85 120.82V120.81Z" fill="black"/>
<path d="M667.93 119.39V150.37H657.6V119.39H649.12V110.65H676.41V119.39H667.93Z" fill="black"/>
<path d="M679.36 130.5C679.36 127.55 679.9 124.8 680.99 122.26C682.08 119.71 683.59 117.49 685.52 115.6C687.45 113.7 689.76 112.22 692.45 111.15C695.14 110.08 698.09 109.54 701.33 109.54C704.57 109.54 707.48 110.08 710.18 111.15C712.88 112.22 715.21 113.7 717.16 115.6C719.11 117.5 720.63 119.72 721.72 122.26C722.81 124.81 723.35 127.55 723.35 130.5C723.35 133.45 722.81 136.2 721.72 138.74C720.63 141.29 719.11 143.51 717.16 145.4C715.21 147.29 712.88 148.78 710.18 149.85C707.48 150.92 704.53 151.46 701.33 151.46C698.13 151.46 695.14 150.92 692.45 149.85C689.76 148.78 687.45 147.3 685.52 145.4C683.59 143.5 682.08 141.28 680.99 138.74C679.9 136.19 679.36 133.45 679.36 130.5Z" fill="black"/>
<path d="M763.44 150.36H750.59L740.74 135.08V150.36H730.42V110.64H746.49C748.7 110.64 750.63 110.96 752.28 111.61C753.93 112.26 755.29 113.15 756.36 114.27C757.43 115.39 758.24 116.69 758.78 118.17C759.32 119.65 759.6 121.23 759.6 122.91C759.6 125.93 758.87 128.38 757.41 130.26C755.95 132.14 753.8 133.41 750.96 134.08L763.45 150.36H763.44ZM740.73 128.39H742.68C744.72 128.39 746.28 127.97 747.37 127.13C748.46 126.29 749 125.08 749 123.5C749 121.92 748.46 120.71 747.37 119.87C746.28 119.03 744.72 118.61 742.68 118.61H740.73V128.41V128.39Z" fill="black"/>
<path d="M790.88 119.39H778.61V126.03H790.2V134.78H778.61V141.63H790.88V150.37H768.28V110.65H790.88V119.39Z" fill="black"/>
<path d="M66.66 128.13H87.15C87.15 130.24 87.06 132.15 86.89 133.87C86.71 135.59 86.36 137.19 85.84 138.66C85.1 140.73 84.1 142.57 82.84 144.16C81.58 145.76 80.09 147.09 78.39 148.16C76.69 149.23 74.82 150.05 72.78 150.61C70.74 151.17 68.6 151.45 66.35 151.45C63.26 151.45 60.44 150.94 57.89 149.92C55.34 148.9 53.16 147.47 51.33 145.63C49.5 143.79 48.08 141.57 47.06 138.99C46.04 136.41 45.53 133.56 45.53 130.43C45.53 127.3 46.03 124.5 47.03 121.92C48.03 119.34 49.45 117.14 51.3 115.31C53.14 113.48 55.36 112.06 57.96 111.04C60.56 110.02 63.46 109.51 66.65 109.51C70.79 109.51 74.43 110.41 77.55 112.2C80.68 113.99 83.15 116.77 84.98 120.52L75.18 124.58C74.27 122.4 73.08 120.84 71.62 119.89C70.16 118.94 68.5 118.47 66.64 118.47C65.09 118.47 63.69 118.76 62.43 119.34C61.17 119.92 60.09 120.74 59.19 121.82C58.29 122.89 57.59 124.18 57.08 125.69C56.57 127.2 56.32 128.89 56.32 130.75C56.32 132.44 56.54 134 56.98 135.44C57.42 136.88 58.08 138.13 58.96 139.18C59.84 140.23 60.93 141.05 62.23 141.63C63.53 142.21 65.04 142.5 66.76 142.5C67.78 142.5 68.76 142.39 69.71 142.16C70.66 141.93 71.51 141.56 72.26 141.05C73.01 140.54 73.64 139.88 74.13 139.07C74.62 138.26 74.95 137.28 75.13 136.12H66.65V128.11L66.66 128.13Z" fill="white"/>
<path d="M117.08 143.46H102.33L99.96 150.36H88.95L104.07 110.64H115.34L130.46 150.36H119.45L117.08 143.46ZM114.34 135.61L109.7 122.39L105.06 135.61H114.33H114.34Z" fill="white"/>
<path d="M133.72 150.36L140.46 110.64H150.68L158.63 131.82L166.53 110.64H176.75L183.49 150.36H173.22L169.8 127.5L160.42 150.36H156.31L147.41 127.5L143.99 150.36H133.72Z" fill="white"/>
<path d="M213.16 119.39H200.89V126.03H212.48V134.78H200.89V141.63H213.16V150.37H190.56V110.65H213.16V119.39Z" fill="white"/>
<path d="M262.15 119.39H249.88V126.03H261.47V134.78H249.88V141.63H262.15V150.37H239.55V110.65H262.15V119.39Z" fill="white"/>
<path d="M281.48 129.19L269.1 110.65H281.85L287.22 120.92L293.86 110.65H306.61L293.49 129.19L308.29 150.37H295.7L287.75 137.41L278.43 150.37H265.95L281.49 129.19H281.48Z" fill="white"/>
<path d="M323.31 150.36H312.98V110.64H329.42C333.88 110.64 337.3 111.8 339.67 114.12C342.04 116.44 343.23 119.7 343.23 123.92C343.23 128.14 342.04 131.4 339.67 133.72C337.3 136.04 333.88 137.2 329.42 137.2H323.31V150.37V150.36ZM323.31 128.87H326.73C330.52 128.87 332.42 127.22 332.42 123.92C332.42 120.62 330.52 118.97 326.73 118.97H323.31V128.87Z" fill="white"/>
<path d="M371.83 119.39H359.56V126.03H371.15V134.78H359.56V141.63H371.83V150.37H349.23V110.65H371.83V119.39Z" fill="white"/>
<path d="M412.81 150.36H399.96L390.11 135.08V150.36H379.78V110.64H395.85C398.06 110.64 399.99 110.96 401.64 111.61C403.29 112.26 404.65 113.15 405.72 114.27C406.79 115.39 407.6 116.69 408.14 118.17C408.68 119.65 408.96 121.23 408.96 122.91C408.96 125.93 408.23 128.38 406.77 130.26C405.31 132.14 403.16 133.41 400.32 134.08L412.8 150.36H412.81ZM390.11 128.39H392.06C394.1 128.39 395.66 127.97 396.75 127.13C397.84 126.29 398.38 125.08 398.38 123.5C398.38 121.92 397.84 120.71 396.75 119.87C395.66 119.03 394.1 118.61 392.06 118.61H390.11V128.41V128.39Z" fill="white"/>
<path d="M427.98 110.64V150.36H417.66V110.64H427.98Z" fill="white"/>
<path d="M435.04 150.36L441.78 110.64H452L459.96 131.82L467.86 110.64H478.08L484.82 150.36H474.55L471.13 127.5L461.75 150.36H457.64L448.74 127.5L445.32 150.36H435.05H435.04Z" fill="white"/>
<path d="M514.48 119.39H502.21V126.03H513.8V134.78H502.21V141.63H514.48V150.37H491.88V110.65H514.48V119.39Z" fill="white"/>
<path d="M522.43 150.36V110.64H532.76L551.83 134.92V110.64H562.1V150.36H551.83L532.76 126.07V150.36H522.43Z" fill="white"/>
<path d="M586.02 119.39V150.37H575.69V119.39H567.21V110.65H594.5V119.39H586.02Z" fill="white"/>
<path d="M639.85 120.81C638.73 119.9 637.6 119.22 636.48 118.78C635.36 118.34 634.27 118.12 633.21 118.12C631.88 118.12 630.79 118.44 629.94 119.07C629.1 119.7 628.68 120.53 628.68 121.55C628.68 122.25 628.89 122.83 629.31 123.29C629.73 123.75 630.28 124.14 630.97 124.48C631.65 124.81 632.43 125.1 633.29 125.35C634.15 125.6 635 125.86 635.85 126.14C639.22 127.26 641.69 128.77 643.25 130.64C644.81 132.52 645.59 134.97 645.59 137.99C645.59 140.03 645.25 141.87 644.56 143.52C643.88 145.17 642.87 146.58 641.56 147.76C640.24 148.94 638.63 149.85 636.71 150.5C634.79 151.15 632.63 151.47 630.2 151.47C625.18 151.47 620.52 149.98 616.24 146.99L620.66 138.67C622.2 140.04 623.73 141.06 625.24 141.73C626.75 142.4 628.24 142.73 629.72 142.73C631.41 142.73 632.66 142.34 633.49 141.57C634.32 140.8 634.73 139.92 634.73 138.94C634.73 138.34 634.62 137.83 634.41 137.39C634.2 136.95 633.85 136.55 633.36 136.18C632.87 135.81 632.23 135.47 631.44 135.15C630.65 134.83 629.69 134.48 628.57 134.1C627.24 133.68 625.93 133.21 624.65 132.7C623.37 132.19 622.23 131.51 621.23 130.67C620.23 129.83 619.42 128.77 618.81 127.48C618.19 126.2 617.89 124.57 617.89 122.61C617.89 120.65 618.21 118.86 618.86 117.26C619.51 115.66 620.42 114.29 621.6 113.15C622.78 112.01 624.22 111.12 625.92 110.49C627.62 109.86 629.53 109.54 631.64 109.54C633.61 109.54 635.66 109.81 637.8 110.36C639.94 110.9 642 111.7 643.96 112.76L639.85 120.82V120.81Z" fill="white"/>
<path d="M667.93 119.39V150.37H657.6V119.39H649.12V110.65H676.41V119.39H667.93Z" fill="white"/>
<path d="M679.36 130.5C679.36 127.55 679.9 124.8 680.99 122.26C682.08 119.71 683.59 117.49 685.52 115.6C687.45 113.7 689.76 112.22 692.45 111.15C695.14 110.08 698.09 109.54 701.33 109.54C704.57 109.54 707.48 110.08 710.18 111.15C712.88 112.22 715.21 113.7 717.16 115.6C719.11 117.5 720.63 119.72 721.72 122.26C722.81 124.81 723.35 127.55 723.35 130.5C723.35 133.45 722.81 136.2 721.72 138.74C720.63 141.29 719.11 143.51 717.16 145.4C715.21 147.29 712.88 148.78 710.18 149.85C707.48 150.92 704.53 151.46 701.33 151.46C698.13 151.46 695.14 150.92 692.45 149.85C689.76 148.78 687.45 147.3 685.52 145.4C683.59 143.5 682.08 141.28 680.99 138.74C679.9 136.19 679.36 133.45 679.36 130.5Z" fill="white"/>
<path d="M763.44 150.36H750.59L740.74 135.08V150.36H730.42V110.64H746.49C748.7 110.64 750.63 110.96 752.28 111.61C753.93 112.26 755.29 113.15 756.36 114.27C757.43 115.39 758.24 116.69 758.78 118.17C759.32 119.65 759.6 121.23 759.6 122.91C759.6 125.93 758.87 128.38 757.41 130.26C755.95 132.14 753.8 133.41 750.96 134.08L763.45 150.36H763.44ZM740.73 128.39H742.68C744.72 128.39 746.28 127.97 747.37 127.13C748.46 126.29 749 125.08 749 123.5C749 121.92 748.46 120.71 747.37 119.87C746.28 119.03 744.72 118.61 742.68 118.61H740.73V128.41V128.39Z" fill="white"/>
<path d="M790.88 119.39H778.61V126.03H790.2V134.78H778.61V141.63H790.88V150.37H768.28V110.65H790.88V119.39Z" fill="white"/>
<path d="M66.66 128.13H87.15C87.15 130.24 87.06 132.15 86.89 133.87C86.71 135.59 86.36 137.19 85.84 138.66C85.1 140.73 84.1 142.57 82.84 144.16C81.58 145.76 80.09 147.09 78.39 148.16C76.69 149.23 74.82 150.05 72.78 150.61C70.74 151.17 68.6 151.45 66.35 151.45C63.26 151.45 60.44 150.94 57.89 149.92C55.34 148.9 53.16 147.47 51.33 145.63C49.5 143.79 48.08 141.57 47.06 138.99C46.04 136.41 45.53 133.56 45.53 130.43C45.53 127.3 46.03 124.5 47.03 121.92C48.03 119.34 49.45 117.14 51.3 115.31C53.14 113.48 55.36 112.06 57.96 111.04C60.56 110.02 63.46 109.51 66.65 109.51C70.79 109.51 74.43 110.41 77.55 112.2C80.68 113.99 83.15 116.77 84.98 120.52L75.18 124.58C74.27 122.4 73.08 120.84 71.62 119.89C70.16 118.94 68.5 118.47 66.64 118.47C65.09 118.47 63.69 118.76 62.43 119.34C61.17 119.92 60.09 120.74 59.19 121.82C58.29 122.89 57.59 124.18 57.08 125.69C56.57 127.2 56.32 128.89 56.32 130.75C56.32 132.44 56.54 134 56.98 135.44C57.42 136.88 58.08 138.13 58.96 139.18C59.84 140.23 60.93 141.05 62.23 141.63C63.53 142.21 65.04 142.5 66.76 142.5C67.78 142.5 68.76 142.39 69.71 142.16C70.66 141.93 71.51 141.56 72.26 141.05C73.01 140.54 73.64 139.88 74.13 139.07C74.62 138.26 74.95 137.28 75.13 136.12H66.65V128.11L66.66 128.13Z" stroke="#CCCCCC" stroke-width="14" stroke-linecap="round" stroke-linejoin="round"/>
<path d="M117.08 143.46H102.33L99.96 150.36H88.95L104.07 110.64H115.34L130.46 150.36H119.45L117.08 143.46V143.46ZM114.34 135.61L109.7 122.39L105.06 135.61H114.33H114.34Z" stroke="#CCCCCC" stroke-width="14" stroke-linecap="round" stroke-linejoin="round"/>
<path d="M133.72 150.36L140.46 110.64H150.68L158.63 131.82L166.53 110.64H176.75L183.49 150.36H173.22L169.8 127.5L160.42 150.36H156.31L147.41 127.5L143.99 150.36H133.72Z" stroke="#CCCCCC" stroke-width="14" stroke-linecap="round" stroke-linejoin="round"/>
<path d="M213.16 119.39H200.89V126.03H212.48V134.78H200.89V141.63H213.16V150.37H190.56V110.65H213.16V119.39Z" stroke="#CCCCCC" stroke-width="14" stroke-linecap="round" stroke-linejoin="round"/>
<path d="M262.15 119.39H249.88V126.03H261.47V134.78H249.88V141.63H262.15V150.37H239.55V110.65H262.15V119.39Z" stroke="#CCCCCC" stroke-width="14" stroke-linecap="round" stroke-linejoin="round"/>
<path d="M281.48 129.19L269.1 110.65H281.85L287.22 120.92L293.86 110.65H306.61L293.49 129.19L308.29 150.37H295.7L287.75 137.41L278.43 150.37H265.95L281.49 129.19H281.48Z" stroke="#CCCCCC" stroke-width="14" stroke-linecap="round" stroke-linejoin="round"/>
<path d="M323.31 150.36H312.98V110.64H329.42C333.88 110.64 337.3 111.8 339.67 114.12C342.04 116.44 343.23 119.7 343.23 123.92C343.23 128.14 342.04 131.4 339.67 133.72C337.3 136.04 333.88 137.2 329.42 137.2H323.31V150.37V150.36ZM323.31 128.87H326.73C330.52 128.87 332.42 127.22 332.42 123.92C332.42 120.62 330.52 118.97 326.73 118.97H323.31V128.87Z" stroke="#CCCCCC" stroke-width="14" stroke-linecap="round" stroke-linejoin="round"/>
<path d="M371.83 119.39H359.56V126.03H371.15V134.78H359.56V141.63H371.83V150.37H349.23V110.65H371.83V119.39Z" stroke="#CCCCCC" stroke-width="14" stroke-linecap="round" stroke-linejoin="round"/>
<path d="M412.81 150.36H399.96L390.11 135.08V150.36H379.78V110.64H395.85C398.06 110.64 399.99 110.96 401.64 111.61C403.29 112.26 404.65 113.15 405.72 114.27C406.79 115.39 407.6 116.69 408.14 118.17C408.68 119.65 408.96 121.23 408.96 122.91C408.96 125.93 408.23 128.38 406.77 130.26C405.31 132.14 403.16 133.41 400.32 134.08L412.8 150.36H412.81ZM390.11 128.39H392.06C394.1 128.39 395.66 127.97 396.75 127.13C397.84 126.29 398.38 125.08 398.38 123.5C398.38 121.92 397.84 120.71 396.75 119.87C395.66 119.03 394.1 118.61 392.06 118.61H390.11V128.41V128.39Z" stroke="#CCCCCC" stroke-width="14" stroke-linecap="round" stroke-linejoin="round"/>
<path d="M427.98 110.64V150.36H417.66V110.64H427.98V110.64Z" stroke="#CCCCCC" stroke-width="14" stroke-linecap="round" stroke-linejoin="round"/>
<path d="M435.04 150.36L441.78 110.64H452L459.96 131.82L467.86 110.64H478.08L484.82 150.36H474.55L471.13 127.5L461.75 150.36H457.64L448.74 127.5L445.32 150.36H435.05H435.04Z" stroke="#CCCCCC" stroke-width="14" stroke-linecap="round" stroke-linejoin="round"/>
<path d="M514.48 119.39H502.21V126.03H513.8V134.78H502.21V141.63H514.48V150.37H491.88V110.65H514.48V119.39V119.39Z" stroke="#CCCCCC" stroke-width="14" stroke-linecap="round" stroke-linejoin="round"/>
<path d="M522.43 150.36V110.64H532.76L551.83 134.92V110.64H562.1V150.36H551.83L532.76 126.07V150.36H522.43Z" stroke="#CCCCCC" stroke-width="14" stroke-linecap="round" stroke-linejoin="round"/>
<path d="M586.02 119.39V150.37H575.69V119.39H567.21V110.65H594.5V119.39H586.02V119.39Z" stroke="#CCCCCC" stroke-width="14" stroke-linecap="round" stroke-linejoin="round"/>
<path d="M639.85 120.81C638.73 119.9 637.6 119.22 636.48 118.78C635.36 118.34 634.27 118.12 633.21 118.12C631.88 118.12 630.79 118.44 629.94 119.07C629.1 119.7 628.68 120.53 628.68 121.55C628.68 122.25 628.89 122.83 629.31 123.29C629.73 123.75 630.28 124.14 630.97 124.48C631.65 124.81 632.43 125.1 633.29 125.35C634.15 125.6 635 125.86 635.85 126.14C639.22 127.26 641.69 128.77 643.25 130.64C644.81 132.52 645.59 134.97 645.59 137.99C645.59 140.03 645.25 141.87 644.56 143.52C643.88 145.17 642.87 146.58 641.56 147.76C640.24 148.94 638.63 149.85 636.71 150.5C634.79 151.15 632.63 151.47 630.2 151.47C625.18 151.47 620.52 149.98 616.24 146.99L620.66 138.67C622.2 140.04 623.73 141.06 625.24 141.73C626.75 142.4 628.24 142.73 629.72 142.73C631.41 142.73 632.66 142.34 633.49 141.57C634.32 140.8 634.73 139.92 634.73 138.94C634.73 138.34 634.62 137.83 634.41 137.39C634.2 136.95 633.85 136.55 633.36 136.18C632.87 135.81 632.23 135.47 631.44 135.15C630.65 134.83 629.69 134.48 628.57 134.1C627.24 133.68 625.93 133.21 624.65 132.7C623.37 132.19 622.23 131.51 621.23 130.67C620.23 129.83 619.42 128.77 618.81 127.48C618.19 126.2 617.89 124.57 617.89 122.61C617.89 120.65 618.21 118.86 618.86 117.26C619.51 115.66 620.42 114.29 621.6 113.15C622.78 112.01 624.22 111.12 625.92 110.49C627.62 109.86 629.53 109.54 631.64 109.54C633.61 109.54 635.66 109.81 637.8 110.36C639.94 110.9 642 111.7 643.96 112.76L639.85 120.82V120.81Z" stroke="#CCCCCC" stroke-width="14" stroke-linecap="round" stroke-linejoin="round"/>
<path d="M667.93 119.39V150.37H657.6V119.39H649.12V110.65H676.41V119.39H667.93V119.39Z" stroke="#CCCCCC" stroke-width="14" stroke-linecap="round" stroke-linejoin="round"/>
<path d="M679.36 130.5C679.36 127.55 679.9 124.8 680.99 122.26C682.08 119.71 683.59 117.49 685.52 115.6C687.45 113.7 689.76 112.22 692.45 111.15C695.14 110.08 698.09 109.54 701.33 109.54C704.57 109.54 707.48 110.08 710.18 111.15C712.88 112.22 715.21 113.7 717.16 115.6C719.11 117.5 720.63 119.72 721.72 122.26C722.81 124.81 723.35 127.55 723.35 130.5C723.35 133.45 722.81 136.2 721.72 138.74C720.63 141.29 719.11 143.51 717.16 145.4C715.21 147.29 712.88 148.78 710.18 149.85C707.48 150.92 704.53 151.46 701.33 151.46C698.13 151.46 695.14 150.92 692.45 149.85C689.76 148.78 687.45 147.3 685.52 145.4C683.59 143.5 682.08 141.28 680.99 138.74C679.9 136.19 679.36 133.45 679.36 130.5Z" stroke="#CCCCCC" stroke-width="14" stroke-linecap="round" stroke-linejoin="round"/>
<path d="M763.44 150.36H750.59L740.74 135.08V150.36H730.42V110.64H746.49C748.7 110.64 750.63 110.96 752.28 111.61C753.93 112.26 755.29 113.15 756.36 114.27C757.43 115.39 758.24 116.69 758.78 118.17C759.32 119.65 759.6 121.23 759.6 122.91C759.6 125.93 758.87 128.38 757.41 130.26C755.95 132.14 753.8 133.41 750.96 134.08L763.45 150.36H763.44ZM740.73 128.39H742.68C744.72 128.39 746.28 127.97 747.37 127.13C748.46 126.29 749 125.08 749 123.5C749 121.92 748.46 120.71 747.37 119.87C746.28 119.03 744.72 118.61 742.68 118.61H740.73V128.41V128.39Z" stroke="#CCCCCC" stroke-width="14" stroke-linecap="round" stroke-linejoin="round"/>
<path d="M790.88 119.39H778.61V126.03H790.2V134.78H778.61V141.63H790.88V150.37H768.28V110.65H790.88V119.39Z" stroke="#CCCCCC" stroke-width="14" stroke-linecap="round" stroke-linejoin="round"/>
<path d="M66.66 128.13H87.15C87.15 130.24 87.06 132.15 86.89 133.87C86.71 135.59 86.36 137.19 85.84 138.66C85.1 140.73 84.1 142.57 82.84 144.16C81.58 145.76 80.09 147.09 78.39 148.16C76.69 149.23 74.82 150.05 72.78 150.61C70.74 151.17 68.6 151.45 66.35 151.45C63.26 151.45 60.44 150.94 57.89 149.92C55.34 148.9 53.16 147.47 51.33 145.63C49.5 143.79 48.08 141.57 47.06 138.99C46.04 136.41 45.53 133.56 45.53 130.43C45.53 127.3 46.03 124.5 47.03 121.92C48.03 119.34 49.45 117.14 51.3 115.31C53.14 113.48 55.36 112.06 57.96 111.04C60.56 110.02 63.46 109.51 66.65 109.51C70.79 109.51 74.43 110.41 77.55 112.2C80.68 113.99 83.15 116.77 84.98 120.52L75.18 124.58C74.27 122.4 73.08 120.84 71.62 119.89C70.16 118.94 68.5 118.47 66.64 118.47C65.09 118.47 63.69 118.76 62.43 119.34C61.17 119.92 60.09 120.74 59.19 121.82C58.29 122.89 57.59 124.18 57.08 125.69C56.57 127.2 56.32 128.89 56.32 130.75C56.32 132.44 56.54 134 56.98 135.44C57.42 136.88 58.08 138.13 58.96 139.18C59.84 140.23 60.93 141.05 62.23 141.63C63.53 142.21 65.04 142.5 66.76 142.5C67.78 142.5 68.76 142.39 69.71 142.16C70.66 141.93 71.51 141.56 72.26 141.05C73.01 140.54 73.64 139.88 74.13 139.07C74.62 138.26 74.95 137.28 75.13 136.12H66.65V128.11L66.66 128.13Z" fill="white"/>
<path d="M117.08 143.46H102.33L99.96 150.36H88.95L104.07 110.64H115.34L130.46 150.36H119.45L117.08 143.46ZM114.34 135.61L109.7 122.39L105.06 135.61H114.33H114.34Z" fill="white"/>
<path d="M133.72 150.36L140.46 110.64H150.68L158.63 131.82L166.53 110.64H176.75L183.49 150.36H173.22L169.8 127.5L160.42 150.36H156.31L147.41 127.5L143.99 150.36H133.72Z" fill="white"/>
<path d="M213.16 119.39H200.89V126.03H212.48V134.78H200.89V141.63H213.16V150.37H190.56V110.65H213.16V119.39Z" fill="white"/>
<path d="M262.15 119.39H249.88V126.03H261.47V134.78H249.88V141.63H262.15V150.37H239.55V110.65H262.15V119.39Z" fill="white"/>
<path d="M281.48 129.19L269.1 110.65H281.85L287.22 120.92L293.86 110.65H306.61L293.49 129.19L308.29 150.37H295.7L287.75 137.41L278.43 150.37H265.95L281.49 129.19H281.48Z" fill="white"/>
<path d="M323.31 150.36H312.98V110.64H329.42C333.88 110.64 337.3 111.8 339.67 114.12C342.04 116.44 343.23 119.7 343.23 123.92C343.23 128.14 342.04 131.4 339.67 133.72C337.3 136.04 333.88 137.2 329.42 137.2H323.31V150.37V150.36ZM323.31 128.87H326.73C330.52 128.87 332.42 127.22 332.42 123.92C332.42 120.62 330.52 118.97 326.73 118.97H323.31V128.87Z" fill="white"/>
<path d="M371.83 119.39H359.56V126.03H371.15V134.78H359.56V141.63H371.83V150.37H349.23V110.65H371.83V119.39Z" fill="white"/>
<path d="M412.81 150.36H399.96L390.11 135.08V150.36H379.78V110.64H395.85C398.06 110.64 399.99 110.96 401.64 111.61C403.29 112.26 404.65 113.15 405.72 114.27C406.79 115.39 407.6 116.69 408.14 118.17C408.68 119.65 408.96 121.23 408.96 122.91C408.96 125.93 408.23 128.38 406.77 130.26C405.31 132.14 403.16 133.41 400.32 134.08L412.8 150.36H412.81ZM390.11 128.39H392.06C394.1 128.39 395.66 127.97 396.75 127.13C397.84 126.29 398.38 125.08 398.38 123.5C398.38 121.92 397.84 120.71 396.75 119.87C395.66 119.03 394.1 118.61 392.06 118.61H390.11V128.41V128.39Z" fill="white"/>
<path d="M427.98 110.64V150.36H417.66V110.64H427.98Z" fill="white"/>
<path d="M435.04 150.36L441.78 110.64H452L459.96 131.82L467.86 110.64H478.08L484.82 150.36H474.55L471.13 127.5L461.75 150.36H457.64L448.74 127.5L445.32 150.36H435.05H435.04Z" fill="white"/>
<path d="M514.48 119.39H502.21V126.03H513.8V134.78H502.21V141.63H514.48V150.37H491.88V110.65H514.48V119.39Z" fill="white"/>
<path d="M522.43 150.36V110.64H532.76L551.83 134.92V110.64H562.1V150.36H551.83L532.76 126.07V150.36H522.43Z" fill="white"/>
<path d="M586.02 119.39V150.37H575.69V119.39H567.21V110.65H594.5V119.39H586.02Z" fill="white"/>
<path d="M639.85 120.81C638.73 119.9 637.6 119.22 636.48 118.78C635.36 118.34 634.27 118.12 633.21 118.12C631.88 118.12 630.79 118.44 629.94 119.07C629.1 119.7 628.68 120.53 628.68 121.55C628.68 122.25 628.89 122.83 629.31 123.29C629.73 123.75 630.28 124.14 630.97 124.48C631.65 124.81 632.43 125.1 633.29 125.35C634.15 125.6 635 125.86 635.85 126.14C639.22 127.26 641.69 128.77 643.25 130.64C644.81 132.52 645.59 134.97 645.59 137.99C645.59 140.03 645.25 141.87 644.56 143.52C643.88 145.17 642.87 146.58 641.56 147.76C640.24 148.94 638.63 149.85 636.71 150.5C634.79 151.15 632.63 151.47 630.2 151.47C625.18 151.47 620.52 149.98 616.24 146.99L620.66 138.67C622.2 140.04 623.73 141.06 625.24 141.73C626.75 142.4 628.24 142.73 629.72 142.73C631.41 142.73 632.66 142.34 633.49 141.57C634.32 140.8 634.73 139.92 634.73 138.94C634.73 138.34 634.62 137.83 634.41 137.39C634.2 136.95 633.85 136.55 633.36 136.18C632.87 135.81 632.23 135.47 631.44 135.15C630.65 134.83 629.69 134.48 628.57 134.1C627.24 133.68 625.93 133.21 624.65 132.7C623.37 132.19 622.23 131.51 621.23 130.67C620.23 129.83 619.42 128.77 618.81 127.48C618.19 126.2 617.89 124.57 617.89 122.61C617.89 120.65 618.21 118.86 618.86 117.26C619.51 115.66 620.42 114.29 621.6 113.15C622.78 112.01 624.22 111.12 625.92 110.49C627.62 109.86 629.53 109.54 631.64 109.54C633.61 109.54 635.66 109.81 637.8 110.36C639.94 110.9 642 111.7 643.96 112.76L639.85 120.82V120.81Z" fill="white"/>
<path d="M667.93 119.39V150.37H657.6V119.39H649.12V110.65H676.41V119.39H667.93Z" fill="white"/>
<path d="M679.36 130.5C679.36 127.55 679.9 124.8 680.99 122.26C682.08 119.71 683.59 117.49 685.52 115.6C687.45 113.7 689.76 112.22 692.45 111.15C695.14 110.08 698.09 109.54 701.33 109.54C704.57 109.54 707.48 110.08 710.18 111.15C712.88 112.22 715.21 113.7 717.16 115.6C719.11 117.5 720.63 119.72 721.72 122.26C722.81 124.81 723.35 127.55 723.35 130.5C723.35 133.45 722.81 136.2 721.72 138.74C720.63 141.29 719.11 143.51 717.16 145.4C715.21 147.29 712.88 148.78 710.18 149.85C707.48 150.92 704.53 151.46 701.33 151.46C698.13 151.46 695.14 150.92 692.45 149.85C689.76 148.78 687.45 147.3 685.52 145.4C683.59 143.5 682.08 141.28 680.99 138.74C679.9 136.19 679.36 133.45 679.36 130.5Z" fill="white"/>
<path d="M763.44 150.36H750.59L740.74 135.08V150.36H730.42V110.64H746.49C748.7 110.64 750.63 110.96 752.28 111.61C753.93 112.26 755.29 113.15 756.36 114.27C757.43 115.39 758.24 116.69 758.78 118.17C759.32 119.65 759.6 121.23 759.6 122.91C759.6 125.93 758.87 128.38 757.41 130.26C755.95 132.14 753.8 133.41 750.96 134.08L763.45 150.36H763.44ZM740.73 128.39H742.68C744.72 128.39 746.28 127.97 747.37 127.13C748.46 126.29 749 125.08 749 123.5C749 121.92 748.46 120.71 747.37 119.87C746.28 119.03 744.72 118.61 742.68 118.61H740.73V128.41V128.39Z" fill="white"/>
<path d="M790.88 119.39H778.61V126.03H790.2V134.78H778.61V141.63H790.88V150.37H768.28V110.65H790.88V119.39Z" fill="white"/>
<path d="M66.66 123.39H87.15C87.15 125.5 87.06 127.41 86.89 129.13C86.71 130.85 86.36 132.45 85.84 133.92C85.1 135.99 84.1 137.83 82.84 139.42C81.58 141.02 80.09 142.35 78.39 143.42C76.69 144.49 74.82 145.31 72.78 145.87C70.74 146.43 68.6 146.71 66.35 146.71C63.26 146.71 60.44 146.2 57.89 145.18C55.34 144.16 53.16 142.73 51.33 140.89C49.5 139.05 48.08 136.83 47.06 134.25C46.04 131.67 45.53 128.82 45.53 125.69C45.53 122.56 46.03 119.76 47.03 117.18C48.03 114.6 49.45 112.4 51.3 110.57C53.14 108.74 55.36 107.32 57.96 106.3C60.56 105.28 63.46 104.77 66.65 104.77C70.79 104.77 74.43 105.67 77.55 107.46C80.68 109.25 83.15 112.03 84.98 115.78L75.18 119.84C74.27 117.66 73.08 116.1 71.62 115.15C70.16 114.2 68.5 113.73 66.64 113.73C65.09 113.73 63.69 114.02 62.43 114.6C61.17 115.18 60.09 116 59.19 117.08C58.29 118.15 57.59 119.44 57.08 120.95C56.57 122.46 56.32 124.15 56.32 126.01C56.32 127.7 56.54 129.26 56.98 130.7C57.42 132.14 58.08 133.39 58.96 134.44C59.84 135.49 60.93 136.31 62.23 136.89C63.53 137.47 65.04 137.76 66.76 137.76C67.78 137.76 68.76 137.65 69.71 137.42C70.66 137.19 71.51 136.82 72.26 136.31C73.01 135.8 73.64 135.14 74.13 134.33C74.62 133.52 74.95 132.54 75.13 131.38H66.65V123.37L66.66 123.39Z" fill="black"/>
<path d="M117.08 138.72H102.33L99.96 145.62H88.95L104.07 105.9H115.34L130.46 145.62H119.45L117.08 138.72ZM114.34 130.87L109.7 117.65L105.06 130.87H114.33H114.34Z" fill="black"/>
<path d="M133.72 145.62L140.46 105.9H150.68L158.63 127.08L166.53 105.9H176.75L183.49 145.62H173.22L169.8 122.76L160.42 145.62H156.31L147.41 122.76L143.99 145.62H133.72Z" fill="black"/>
<path d="M213.16 114.64H200.89V121.28H212.48V130.03H200.89V136.88H213.16V145.62H190.56V105.9H213.16V114.64Z" fill="black"/>
<path d="M262.15 114.64H249.88V121.28H261.47V130.03H249.88V136.88H262.15V145.62H239.55V105.9H262.15V114.64Z" fill="black"/>
<path d="M281.48 124.44L269.1 105.9H281.85L287.22 116.17L293.86 105.9H306.61L293.49 124.44L308.29 145.62H295.7L287.75 132.66L278.43 145.62H265.95L281.49 124.44H281.48Z" fill="black"/>
<path d="M323.31 145.62H312.98V105.9H329.42C333.88 105.9 337.3 107.06 339.67 109.38C342.04 111.7 343.23 114.96 343.23 119.18C343.23 123.4 342.04 126.66 339.67 128.98C337.3 131.3 333.88 132.46 329.42 132.46H323.31V145.63V145.62ZM323.31 124.13H326.73C330.52 124.13 332.42 122.48 332.42 119.18C332.42 115.88 330.52 114.23 326.73 114.23H323.31V124.13Z" fill="black"/>
<path d="M371.83 114.64H359.56V121.28H371.15V130.03H359.56V136.88H371.83V145.62H349.23V105.9H371.83V114.64Z" fill="black"/>
<path d="M412.81 145.62H399.96L390.11 130.34V145.62H379.78V105.9H395.85C398.06 105.9 399.99 106.22 401.64 106.87C403.29 107.52 404.65 108.41 405.72 109.53C406.79 110.65 407.6 111.95 408.14 113.43C408.68 114.91 408.96 116.49 408.96 118.17C408.96 121.19 408.23 123.64 406.77 125.52C405.31 127.4 403.16 128.67 400.32 129.34L412.8 145.62H412.81ZM390.11 123.65H392.06C394.1 123.65 395.66 123.23 396.75 122.39C397.84 121.55 398.38 120.34 398.38 118.76C398.38 117.18 397.84 115.97 396.75 115.13C395.66 114.29 394.1 113.87 392.06 113.87H390.11V123.67V123.65Z" fill="black"/>
<path d="M427.98 105.9V145.62H417.66V105.9H427.98Z" fill="black"/>
<path d="M435.04 145.62L441.78 105.9H452L459.96 127.08L467.86 105.9H478.08L484.82 145.62H474.55L471.13 122.76L461.75 145.62H457.64L448.74 122.76L445.32 145.62H435.05H435.04Z" fill="black"/>
<path d="M514.48 114.64H502.21V121.28H513.8V130.03H502.21V136.88H514.48V145.62H491.88V105.9H514.48V114.64Z" fill="black"/>
<path d="M522.43 145.62V105.9H532.76L551.83 130.18V105.9H562.1V145.62H551.83L532.76 121.33V145.62H522.43Z" fill="black"/>
<path d="M586.02 114.64V145.62H575.69V114.64H567.21V105.9H594.5V114.64H586.02Z" fill="black"/>
<path d="M639.85 116.06C638.73 115.15 637.6 114.47 636.48 114.03C635.36 113.59 634.27 113.37 633.21 113.37C631.88 113.37 630.79 113.69 629.94 114.32C629.1 114.95 628.68 115.78 628.68 116.8C628.68 117.5 628.89 118.08 629.31 118.54C629.73 119 630.28 119.39 630.97 119.73C631.65 120.06 632.43 120.35 633.29 120.6C634.15 120.85 635 121.11 635.85 121.39C639.22 122.51 641.69 124.02 643.25 125.89C644.81 127.77 645.59 130.22 645.59 133.24C645.59 135.28 645.25 137.12 644.56 138.77C643.88 140.42 642.87 141.83 641.56 143.01C640.24 144.19 638.63 145.1 636.71 145.75C634.79 146.4 632.63 146.72 630.2 146.72C625.18 146.72 620.52 145.23 616.24 142.24L620.66 133.92C622.2 135.29 623.73 136.31 625.24 136.98C626.75 137.65 628.24 137.98 629.72 137.98C631.41 137.98 632.66 137.59 633.49 136.82C634.32 136.05 634.73 135.17 634.73 134.19C634.73 133.59 634.62 133.08 634.41 132.64C634.2 132.2 633.85 131.8 633.36 131.43C632.87 131.06 632.23 130.72 631.44 130.4C630.65 130.08 629.69 129.73 628.57 129.35C627.24 128.93 625.93 128.46 624.65 127.95C623.37 127.44 622.23 126.76 621.23 125.92C620.23 125.08 619.42 124.02 618.81 122.73C618.19 121.45 617.89 119.82 617.89 117.86C617.89 115.9 618.21 114.11 618.86 112.51C619.51 110.91 620.42 109.54 621.6 108.4C622.78 107.26 624.22 106.37 625.92 105.74C627.62 105.11 629.53 104.79 631.64 104.79C633.61 104.79 635.66 105.06 637.8 105.61C639.94 106.15 642 106.95 643.96 108.01L639.85 116.07V116.06Z" fill="black"/>
<path d="M667.93 114.64V145.62H657.6V114.64H649.12V105.9H676.41V114.64H667.93Z" fill="black"/>
<path d="M679.36 125.76C679.36 122.81 679.9 120.06 680.99 117.52C682.08 114.97 683.59 112.75 685.52 110.86C687.45 108.96 689.76 107.48 692.45 106.41C695.14 105.34 698.09 104.8 701.33 104.8C704.57 104.8 707.48 105.34 710.18 106.41C712.88 107.48 715.21 108.96 717.16 110.86C719.11 112.76 720.63 114.98 721.72 117.52C722.81 120.07 723.35 122.81 723.35 125.76C723.35 128.71 722.81 131.46 721.72 134C720.63 136.55 719.11 138.77 717.16 140.66C715.21 142.55 712.88 144.04 710.18 145.11C707.48 146.18 704.53 146.72 701.33 146.72C698.13 146.72 695.14 146.18 692.45 145.11C689.76 144.04 687.45 142.56 685.52 140.66C683.59 138.76 682.08 136.54 680.99 134C679.9 131.45 679.36 128.71 679.36 125.76Z" fill="black"/>
<path d="M763.44 145.62H750.59L740.74 130.34V145.62H730.42V105.9H746.49C748.7 105.9 750.63 106.22 752.28 106.87C753.93 107.52 755.29 108.41 756.36 109.53C757.43 110.65 758.24 111.95 758.78 113.43C759.32 114.91 759.6 116.49 759.6 118.17C759.6 121.19 758.87 123.64 757.41 125.52C755.95 127.4 753.8 128.67 750.96 129.34L763.45 145.62H763.44ZM740.73 123.65H742.68C744.72 123.65 746.28 123.23 747.37 122.39C748.46 121.55 749 120.34 749 118.76C749 117.18 748.46 115.97 747.37 115.13C746.28 114.29 744.72 113.87 742.68 113.87H740.73V123.67V123.65Z" fill="black"/>
<path d="M790.88 114.64H778.61V121.28H790.2V130.03H778.61V136.88H790.88V145.62H768.28V105.9H790.88V114.64Z" fill="black"/>
<path d="M66.66 123.39H87.15C87.15 125.5 87.06 127.41 86.89 129.13C86.71 130.85 86.36 132.45 85.84 133.92C85.1 135.99 84.1 137.83 82.84 139.42C81.58 141.02 80.09 142.35 78.39 143.42C76.69 144.49 74.82 145.31 72.78 145.87C70.74 146.43 68.6 146.71 66.35 146.71C63.26 146.71 60.44 146.2 57.89 145.18C55.34 144.16 53.16 142.73 51.33 140.89C49.5 139.05 48.08 136.83 47.06 134.25C46.04 131.67 45.53 128.82 45.53 125.69C45.53 122.56 46.03 119.76 47.03 117.18C48.03 114.6 49.45 112.4 51.3 110.57C53.14 108.74 55.36 107.32 57.96 106.3C60.56 105.28 63.46 104.77 66.65 104.77C70.79 104.77 74.43 105.67 77.55 107.46C80.68 109.25 83.15 112.03 84.98 115.78L75.18 119.84C74.27 117.66 73.08 116.1 71.62 115.15C70.16 114.2 68.5 113.73 66.64 113.73C65.09 113.73 63.69 114.02 62.43 114.6C61.17 115.18 60.09 116 59.19 117.08C58.29 118.15 57.59 119.44 57.08 120.95C56.57 122.46 56.32 124.15 56.32 126.01C56.32 127.7 56.54 129.26 56.98 130.7C57.42 132.14 58.08 133.39 58.96 134.44C59.84 135.49 60.93 136.31 62.23 136.89C63.53 137.47 65.04 137.76 66.76 137.76C67.78 137.76 68.76 137.65 69.71 137.42C70.66 137.19 71.51 136.82 72.26 136.31C73.01 135.8 73.64 135.14 74.13 134.33C74.62 133.52 74.95 132.54 75.13 131.38H66.65V123.37L66.66 123.39Z" fill="white"/>
<path d="M117.08 138.72H102.33L99.96 145.62H88.95L104.07 105.9H115.34L130.46 145.62H119.45L117.08 138.72ZM114.34 130.87L109.7 117.65L105.06 130.87H114.33H114.34Z" fill="white"/>
<path d="M133.72 145.62L140.46 105.9H150.68L158.63 127.08L166.53 105.9H176.75L183.49 145.62H173.22L169.8 122.76L160.42 145.62H156.31L147.41 122.76L143.99 145.62H133.72Z" fill="white"/>
<path d="M213.16 114.64H200.89V121.28H212.48V130.03H200.89V136.88H213.16V145.62H190.56V105.9H213.16V114.64Z" fill="white"/>
<path d="M262.15 114.64H249.88V121.28H261.47V130.03H249.88V136.88H262.15V145.62H239.55V105.9H262.15V114.64Z" fill="white"/>
<path d="M281.48 124.44L269.1 105.9H281.85L287.22 116.17L293.86 105.9H306.61L293.49 124.44L308.29 145.62H295.7L287.75 132.66L278.43 145.62H265.95L281.49 124.44H281.48Z" fill="white"/>
<path d="M323.31 145.62H312.98V105.9H329.42C333.88 105.9 337.3 107.06 339.67 109.38C342.04 111.7 343.23 114.96 343.23 119.18C343.23 123.4 342.04 126.66 339.67 128.98C337.3 131.3 333.88 132.46 329.42 132.46H323.31V145.63V145.62ZM323.31 124.13H326.73C330.52 124.13 332.42 122.48 332.42 119.18C332.42 115.88 330.52 114.23 326.73 114.23H323.31V124.13Z" fill="white"/>
<path d="M371.83 114.64H359.56V121.28H371.15V130.03H359.56V136.88H371.83V145.62H349.23V105.9H371.83V114.64Z" fill="white"/>
<path d="M412.81 145.62H399.96L390.11 130.34V145.62H379.78V105.9H395.85C398.06 105.9 399.99 106.22 401.64 106.87C403.29 107.52 404.65 108.41 405.72 109.53C406.79 110.65 407.6 111.95 408.14 113.43C408.68 114.91 408.96 116.49 408.96 118.17C408.96 121.19 408.23 123.64 406.77 125.52C405.31 127.4 403.16 128.67 400.32 129.34L412.8 145.62H412.81ZM390.11 123.65H392.06C394.1 123.65 395.66 123.23 396.75 122.39C397.84 121.55 398.38 120.34 398.38 118.76C398.38 117.18 397.84 115.97 396.75 115.13C395.66 114.29 394.1 113.87 392.06 113.87H390.11V123.67V123.65Z" fill="white"/>
<path d="M427.98 105.9V145.62H417.66V105.9H427.98Z" fill="white"/>
<path d="M435.04 145.62L441.78 105.9H452L459.96 127.08L467.86 105.9H478.08L484.82 145.62H474.55L471.13 122.76L461.75 145.62H457.64L448.74 122.76L445.32 145.62H435.05H435.04Z" fill="white"/>
<path d="M514.48 114.64H502.21V121.28H513.8V130.03H502.21V136.88H514.48V145.62H491.88V105.9H514.48V114.64Z" fill="white"/>
<path d="M522.43 145.62V105.9H532.76L551.83 130.18V105.9H562.1V145.62H551.83L532.76 121.33V145.62H522.43Z" fill="white"/>
<path d="M586.02 114.64V145.62H575.69V114.64H567.21V105.9H594.5V114.64H586.02Z" fill="white"/>
<path d="M639.85 116.06C638.73 115.15 637.6 114.47 636.48 114.03C635.36 113.59 634.27 113.37 633.21 113.37C631.88 113.37 630.79 113.69 629.94 114.32C629.1 114.95 628.68 115.78 628.68 116.8C628.68 117.5 628.89 118.08 629.31 118.54C629.73 119 630.28 119.39 630.97 119.73C631.65 120.06 632.43 120.35 633.29 120.6C634.15 120.85 635 121.11 635.85 121.39C639.22 122.51 641.69 124.02 643.25 125.89C644.81 127.77 645.59 130.22 645.59 133.24C645.59 135.28 645.25 137.12 644.56 138.77C643.88 140.42 642.87 141.83 641.56 143.01C640.24 144.19 638.63 145.1 636.71 145.75C634.79 146.4 632.63 146.72 630.2 146.72C625.18 146.72 620.52 145.23 616.24 142.24L620.66 133.92C622.2 135.29 623.73 136.31 625.24 136.98C626.75 137.65 628.24 137.98 629.72 137.98C631.41 137.98 632.66 137.59 633.49 136.82C634.32 136.05 634.73 135.17 634.73 134.19C634.73 133.59 634.62 133.08 634.41 132.64C634.2 132.2 633.85 131.8 633.36 131.43C632.87 131.06 632.23 130.72 631.44 130.4C630.65 130.08 629.69 129.73 628.57 129.35C627.24 128.93 625.93 128.46 624.65 127.95C623.37 127.44 622.23 126.76 621.23 125.92C620.23 125.08 619.42 124.02 618.81 122.73C618.19 121.45 617.89 119.82 617.89 117.86C617.89 115.9 618.21 114.11 618.86 112.51C619.51 110.91 620.42 109.54 621.6 108.4C622.78 107.26 624.22 106.37 625.92 105.74C627.62 105.11 629.53 104.79 631.64 104.79C633.61 104.79 635.66 105.06 637.8 105.61C639.94 106.15 642 106.95 643.96 108.01L639.85 116.07V116.06Z" fill="white"/>
<path d="M667.93 114.64V145.62H657.6V114.64H649.12V105.9H676.41V114.64H667.93Z" fill="white"/>
<path d="M679.36 125.76C679.36 122.81 679.9 120.06 680.99 117.52C682.08 114.97 683.59 112.75 685.52 110.86C687.45 108.96 689.76 107.48 692.45 106.41C695.14 105.34 698.09 104.8 701.33 104.8C704.57 104.8 707.48 105.34 710.18 106.41C712.88 107.48 715.21 108.96 717.16 110.86C719.11 112.76 720.63 114.98 721.72 117.52C722.81 120.07 723.35 122.81 723.35 125.76C723.35 128.71 722.81 131.46 721.72 134C720.63 136.55 719.11 138.77 717.16 140.66C715.21 142.55 712.88 144.04 710.18 145.11C707.48 146.18 704.53 146.72 701.33 146.72C698.13 146.72 695.14 146.18 692.45 145.11C689.76 144.04 687.45 142.56 685.52 140.66C683.59 138.76 682.08 136.54 680.99 134C679.9 131.45 679.36 128.71 679.36 125.76Z" fill="white"/>
<path d="M763.44 145.62H750.59L740.74 130.34V145.62H730.42V105.9H746.49C748.7 105.9 750.63 106.22 752.28 106.87C753.93 107.52 755.29 108.41 756.36 109.53C757.43 110.65 758.24 111.95 758.78 113.43C759.32 114.91 759.6 116.49 759.6 118.17C759.6 121.19 758.87 123.64 757.41 125.52C755.95 127.4 753.8 128.67 750.96 129.34L763.45 145.62H763.44ZM740.73 123.65H742.68C744.72 123.65 746.28 123.23 747.37 122.39C748.46 121.55 749 120.34 749 118.76C749 117.18 748.46 115.97 747.37 115.13C746.28 114.29 744.72 113.87 742.68 113.87H740.73V123.67V123.65Z" fill="white"/>
<path d="M790.88 114.64H778.61V121.28H790.2V130.03H778.61V136.88H790.88V145.62H768.28V105.9H790.88V114.64Z" fill="white"/>
<path d="M66.66 123.39H87.15C87.15 125.5 87.06 127.41 86.89 129.13C86.71 130.85 86.36 132.45 85.84 133.92C85.1 135.99 84.1 137.83 82.84 139.42C81.58 141.02 80.09 142.35 78.39 143.42C76.69 144.49 74.82 145.31 72.78 145.87C70.74 146.43 68.6 146.71 66.35 146.71C63.26 146.71 60.44 146.2 57.89 145.18C55.34 144.16 53.16 142.73 51.33 140.89C49.5 139.05 48.08 136.83 47.06 134.25C46.04 131.67 45.53 128.82 45.53 125.69C45.53 122.56 46.03 119.76 47.03 117.18C48.03 114.6 49.45 112.4 51.3 110.57C53.14 108.74 55.36 107.32 57.96 106.3C60.56 105.28 63.46 104.77 66.65 104.77C70.79 104.77 74.43 105.67 77.55 107.46C80.68 109.25 83.15 112.03 84.98 115.78L75.18 119.84C74.27 117.66 73.08 116.1 71.62 115.15C70.16 114.2 68.5 113.73 66.64 113.73C65.09 113.73 63.69 114.02 62.43 114.6C61.17 115.18 60.09 116 59.19 117.08C58.29 118.15 57.59 119.44 57.08 120.95C56.57 122.46 56.32 124.15 56.32 126.01C56.32 127.7 56.54 129.26 56.98 130.7C57.42 132.14 58.08 133.39 58.96 134.44C59.84 135.49 60.93 136.31 62.23 136.89C63.53 137.47 65.04 137.76 66.76 137.76C67.78 137.76 68.76 137.65 69.71 137.42C70.66 137.19 71.51 136.82 72.26 136.31C73.01 135.8 73.64 135.14 74.13 134.33C74.62 133.52 74.95 132.54 75.13 131.38H66.65V123.37L66.66 123.39Z" stroke="black" stroke-width="14" stroke-linecap="round" stroke-linejoin="round"/>
<path d="M117.08 138.72H102.33L99.96 145.62H88.95L104.07 105.9H115.34L130.46 145.62H119.45L117.08 138.72V138.72ZM114.34 130.87L109.7 117.65L105.06 130.87H114.33H114.34Z" stroke="black" stroke-width="14" stroke-linecap="round" stroke-linejoin="round"/>
<path d="M133.72 145.62L140.46 105.9H150.68L158.63 127.08L166.53 105.9H176.75L183.49 145.62H173.22L169.8 122.76L160.42 145.62H156.31L147.41 122.76L143.99 145.62H133.72Z" stroke="black" stroke-width="14" stroke-linecap="round" stroke-linejoin="round"/>
<path d="M213.16 114.64H200.89V121.28H212.48V130.03H200.89V136.88H213.16V145.62H190.56V105.9H213.16V114.64Z" stroke="black" stroke-width="14" stroke-linecap="round" stroke-linejoin="round"/>
<path d="M262.15 114.64H249.88V121.28H261.47V130.03H249.88V136.88H262.15V145.62H239.55V105.9H262.15V114.64Z" stroke="black" stroke-width="14" stroke-linecap="round" stroke-linejoin="round"/>
<path d="M281.48 124.44L269.1 105.9H281.85L287.22 116.17L293.86 105.9H306.61L293.49 124.44L308.29 145.62H295.7L287.75 132.66L278.43 145.62H265.95L281.49 124.44H281.48Z" stroke="black" stroke-width="14" stroke-linecap="round" stroke-linejoin="round"/>
<path d="M323.31 145.62H312.98V105.9H329.42C333.88 105.9 337.3 107.06 339.67 109.38C342.04 111.7 343.23 114.96 343.23 119.18C343.23 123.4 342.04 126.66 339.67 128.98C337.3 131.3 333.88 132.46 329.42 132.46H323.31V145.63V145.62ZM323.31 124.13H326.73C330.52 124.13 332.42 122.48 332.42 119.18C332.42 115.88 330.52 114.23 326.73 114.23H323.31V124.13Z" stroke="black" stroke-width="14" stroke-linecap="round" stroke-linejoin="round"/>
<path d="M371.83 114.64H359.56V121.28H371.15V130.03H359.56V136.88H371.83V145.62H349.23V105.9H371.83V114.64Z" stroke="black" stroke-width="14" stroke-linecap="round" stroke-linejoin="round"/>
<path d="M412.81 145.62H399.96L390.11 130.34V145.62H379.78V105.9H395.85C398.06 105.9 399.99 106.22 401.64 106.87C403.29 107.52 404.65 108.41 405.72 109.53C406.79 110.65 407.6 111.95 408.14 113.43C408.68 114.91 408.96 116.49 408.96 118.17C408.96 121.19 408.23 123.64 406.77 125.52C405.31 127.4 403.16 128.67 400.32 129.34L412.8 145.62H412.81ZM390.11 123.65H392.06C394.1 123.65 395.66 123.23 396.75 122.39C397.84 121.55 398.38 120.34 398.38 118.76C398.38 117.18 397.84 115.97 396.75 115.13C395.66 114.29 394.1 113.87 392.06 113.87H390.11V123.67V123.65Z" stroke="black" stroke-width="14" stroke-linecap="round" stroke-linejoin="round"/>
<path d="M427.98 105.9V145.62H417.66V105.9H427.98Z" stroke="black" stroke-width="14" stroke-linecap="round" stroke-linejoin="round"/>
<path d="M435.04 145.62L441.78 105.9H452L459.96 127.08L467.86 105.9H478.08L484.82 145.62H474.55L471.13 122.76L461.75 145.62H457.64L448.74 122.76L445.32 145.62H435.05H435.04Z" stroke="black" stroke-width="14" stroke-linecap="round" stroke-linejoin="round"/>
<path d="M514.48 114.64H502.21V121.28H513.8V130.03H502.21V136.88H514.48V145.62H491.88V105.9H514.48V114.64V114.64Z" stroke="black" stroke-width="14" stroke-linecap="round" stroke-linejoin="round"/>
<path d="M522.43 145.62V105.9H532.76L551.83 130.18V105.9H562.1V145.62H551.83L532.76 121.33V145.62H522.43Z" stroke="black" stroke-width="14" stroke-linecap="round" stroke-linejoin="round"/>
<path d="M586.02 114.64V145.62H575.69V114.64H567.21V105.9H594.5V114.64H586.02V114.64Z" stroke="black" stroke-width="14" stroke-linecap="round" stroke-linejoin="round"/>
<path d="M639.85 116.06C638.73 115.15 637.6 114.47 636.48 114.03C635.36 113.59 634.27 113.37 633.21 113.37C631.88 113.37 630.79 113.69 629.94 114.32C629.1 114.95 628.68 115.78 628.68 116.8C628.68 117.5 628.89 118.08 629.31 118.54C629.73 119 630.28 119.39 630.97 119.73C631.65 120.06 632.43 120.35 633.29 120.6C634.15 120.85 635 121.11 635.85 121.39C639.22 122.51 641.69 124.02 643.25 125.89C644.81 127.77 645.59 130.22 645.59 133.24C645.59 135.28 645.25 137.12 644.56 138.77C643.88 140.42 642.87 141.83 641.56 143.01C640.24 144.19 638.63 145.1 636.71 145.75C634.79 146.4 632.63 146.72 630.2 146.72C625.18 146.72 620.52 145.23 616.24 142.24L620.66 133.92C622.2 135.29 623.73 136.31 625.24 136.98C626.75 137.65 628.24 137.98 629.72 137.98C631.41 137.98 632.66 137.59 633.49 136.82C634.32 136.05 634.73 135.17 634.73 134.19C634.73 133.59 634.62 133.08 634.41 132.64C634.2 132.2 633.85 131.8 633.36 131.43C632.87 131.06 632.23 130.72 631.44 130.4C630.65 130.08 629.69 129.73 628.57 129.35C627.24 128.93 625.93 128.46 624.65 127.95C623.37 127.44 622.23 126.76 621.23 125.92C620.23 125.08 619.42 124.02 618.81 122.73C618.19 121.45 617.89 119.82 617.89 117.86C617.89 115.9 618.21 114.11 618.86 112.51C619.51 110.91 620.42 109.54 621.6 108.4C622.78 107.26 624.22 106.37 625.92 105.74C627.62 105.11 629.53 104.79 631.64 104.79C633.61 104.79 635.66 105.06 637.8 105.61C639.94 106.15 642 106.95 643.96 108.01L639.85 116.07V116.06Z" stroke="black" stroke-width="14" stroke-linecap="round" stroke-linejoin="round"/>
<path d="M667.93 114.64V145.62H657.6V114.64H649.12V105.9H676.41V114.64H667.93V114.64Z" stroke="black" stroke-width="14" stroke-linecap="round" stroke-linejoin="round"/>
<path d="M679.36 125.76C679.36 122.81 679.9 120.06 680.99 117.52C682.08 114.97 683.59 112.75 685.52 110.86C687.45 108.96 689.76 107.48 692.45 106.41C695.14 105.34 698.09 104.8 701.33 104.8C704.57 104.8 707.48 105.34 710.18 106.41C712.88 107.48 715.21 108.96 717.16 110.86C719.11 112.76 720.63 114.98 721.72 117.52C722.81 120.07 723.35 122.81 723.35 125.76C723.35 128.71 722.81 131.46 721.72 134C720.63 136.55 719.11 138.77 717.16 140.66C715.21 142.55 712.88 144.04 710.18 145.11C707.48 146.18 704.53 146.72 701.33 146.72C698.13 146.72 695.14 146.18 692.45 145.11C689.76 144.04 687.45 142.56 685.52 140.66C683.59 138.76 682.08 136.54 680.99 134C679.9 131.45 679.36 128.71 679.36 125.76Z" stroke="black" stroke-width="14" stroke-linecap="round" stroke-linejoin="round"/>
<path d="M763.44 145.62H750.59L740.74 130.34V145.62H730.42V105.9H746.49C748.7 105.9 750.63 106.22 752.28 106.87C753.93 107.52 755.29 108.41 756.36 109.53C757.43 110.65 758.24 111.95 758.78 113.43C759.32 114.91 759.6 116.49 759.6 118.17C759.6 121.19 758.87 123.64 757.41 125.52C755.95 127.4 753.8 128.67 750.96 129.34L763.45 145.62H763.44ZM740.73 123.65H742.68C744.72 123.65 746.28 123.23 747.37 122.39C748.46 121.55 749 120.34 749 118.76C749 117.18 748.46 115.97 747.37 115.13C746.28 114.29 744.72 113.87 742.68 113.87H740.73V123.67V123.65Z" stroke="black" stroke-width="14" stroke-linecap="round" stroke-linejoin="round"/>
<path d="M790.88 114.64H778.61V121.28H790.2V130.03H778.61V136.88H790.88V145.62H768.28V105.9H790.88V114.64Z" stroke="black" stroke-width="14" stroke-linecap="round" stroke-linejoin="round"/>
<path d="M66.66 123.39H87.15C87.15 125.5 87.06 127.41 86.89 129.13C86.71 130.85 86.36 132.45 85.84 133.92C85.1 135.99 84.1 137.83 82.84 139.42C81.58 141.02 80.09 142.35 78.39 143.42C76.69 144.49 74.82 145.31 72.78 145.87C70.74 146.43 68.6 146.71 66.35 146.71C63.26 146.71 60.44 146.2 57.89 145.18C55.34 144.16 53.16 142.73 51.33 140.89C49.5 139.05 48.08 136.83 47.06 134.25C46.04 131.67 45.53 128.82 45.53 125.69C45.53 122.56 46.03 119.76 47.03 117.18C48.03 114.6 49.45 112.4 51.3 110.57C53.14 108.74 55.36 107.32 57.96 106.3C60.56 105.28 63.46 104.77 66.65 104.77C70.79 104.77 74.43 105.67 77.55 107.46C80.68 109.25 83.15 112.03 84.98 115.78L75.18 119.84C74.27 117.66 73.08 116.1 71.62 115.15C70.16 114.2 68.5 113.73 66.64 113.73C65.09 113.73 63.69 114.02 62.43 114.6C61.17 115.18 60.09 116 59.19 117.08C58.29 118.15 57.59 119.44 57.08 120.95C56.57 122.46 56.32 124.15 56.32 126.01C56.32 127.7 56.54 129.26 56.98 130.7C57.42 132.14 58.08 133.39 58.96 134.44C59.84 135.49 60.93 136.31 62.23 136.89C63.53 137.47 65.04 137.76 66.76 137.76C67.78 137.76 68.76 137.65 69.71 137.42C70.66 137.19 71.51 136.82 72.26 136.31C73.01 135.8 73.64 135.14 74.13 134.33C74.62 133.52 74.95 132.54 75.13 131.38H66.65V123.37L66.66 123.39Z" fill="white"/>
<path d="M117.08 138.72H102.33L99.96 145.62H88.95L104.07 105.9H115.34L130.46 145.62H119.45L117.08 138.72ZM114.34 130.87L109.7 117.65L105.06 130.87H114.33H114.34Z" fill="white"/>
<path d="M133.72 145.62L140.46 105.9H150.68L158.63 127.08L166.53 105.9H176.75L183.49 145.62H173.22L169.8 122.76L160.42 145.62H156.31L147.41 122.76L143.99 145.62H133.72Z" fill="white"/>
<path d="M213.16 114.64H200.89V121.28H212.48V130.03H200.89V136.88H213.16V145.62H190.56V105.9H213.16V114.64Z" fill="white"/>
<path d="M262.15 114.64H249.88V121.28H261.47V130.03H249.88V136.88H262.15V145.62H239.55V105.9H262.15V114.64Z" fill="white"/>
<path d="M281.48 124.44L269.1 105.9H281.85L287.22 116.17L293.86 105.9H306.61L293.49 124.44L308.29 145.62H295.7L287.75 132.66L278.43 145.62H265.95L281.49 124.44H281.48Z" fill="white"/>
<path d="M323.31 145.62H312.98V105.9H329.42C333.88 105.9 337.3 107.06 339.67 109.38C342.04 111.7 343.23 114.96 343.23 119.18C343.23 123.4 342.04 126.66 339.67 128.98C337.3 131.3 333.88 132.46 329.42 132.46H323.31V145.63V145.62ZM323.31 124.13H326.73C330.52 124.13 332.42 122.48 332.42 119.18C332.42 115.88 330.52 114.23 326.73 114.23H323.31V124.13Z" fill="white"/>
<path d="M371.83 114.64H359.56V121.28H371.15V130.03H359.56V136.88H371.83V145.62H349.23V105.9H371.83V114.64Z" fill="white"/>
<path d="M412.81 145.62H399.96L390.11 130.34V145.62H379.78V105.9H395.85C398.06 105.9 399.99 106.22 401.64 106.87C403.29 107.52 404.65 108.41 405.72 109.53C406.79 110.65 407.6 111.95 408.14 113.43C408.68 114.91 408.96 116.49 408.96 118.17C408.96 121.19 408.23 123.64 406.77 125.52C405.31 127.4 403.16 128.67 400.32 129.34L412.8 145.62H412.81ZM390.11 123.65H392.06C394.1 123.65 395.66 123.23 396.75 122.39C397.84 121.55 398.38 120.34 398.38 118.76C398.38 117.18 397.84 115.97 396.75 115.13C395.66 114.29 394.1 113.87 392.06 113.87H390.11V123.67V123.65Z" fill="white"/>
<path d="M427.98 105.9V145.62H417.66V105.9H427.98Z" fill="white"/>
<path d="M435.04 145.62L441.78 105.9H452L459.96 127.08L467.86 105.9H478.08L484.82 145.62H474.55L471.13 122.76L461.75 145.62H457.64L448.74 122.76L445.32 145.62H435.05H435.04Z" fill="white"/>
<path d="M514.48 114.64H502.21V121.28H513.8V130.03H502.21V136.88H514.48V145.62H491.88V105.9H514.48V114.64Z" fill="white"/>
<path d="M522.43 145.62V105.9H532.76L551.83 130.18V105.9H562.1V145.62H551.83L532.76 121.33V145.62H522.43Z" fill="white"/>
<path d="M586.02 114.64V145.62H575.69V114.64H567.21V105.9H594.5V114.64H586.02Z" fill="white"/>
<path d="M639.85 116.06C638.73 115.15 637.6 114.47 636.48 114.03C635.36 113.59 634.27 113.37 633.21 113.37C631.88 113.37 630.79 113.69 629.94 114.32C629.1 114.95 628.68 115.78 628.68 116.8C628.68 117.5 628.89 118.08 629.31 118.54C629.73 119 630.28 119.39 630.97 119.73C631.65 120.06 632.43 120.35 633.29 120.6C634.15 120.85 635 121.11 635.85 121.39C639.22 122.51 641.69 124.02 643.25 125.89C644.81 127.77 645.59 130.22 645.59 133.24C645.59 135.28 645.25 137.12 644.56 138.77C643.88 140.42 642.87 141.83 641.56 143.01C640.24 144.19 638.63 145.1 636.71 145.75C634.79 146.4 632.63 146.72 630.2 146.72C625.18 146.72 620.52 145.23 616.24 142.24L620.66 133.92C622.2 135.29 623.73 136.31 625.24 136.98C626.75 137.65 628.24 137.98 629.72 137.98C631.41 137.98 632.66 137.59 633.49 136.82C634.32 136.05 634.73 135.17 634.73 134.19C634.73 133.59 634.62 133.08 634.41 132.64C634.2 132.2 633.85 131.8 633.36 131.43C632.87 131.06 632.23 130.72 631.44 130.4C630.65 130.08 629.69 129.73 628.57 129.35C627.24 128.93 625.93 128.46 624.65 127.95C623.37 127.44 622.23 126.76 621.23 125.92C620.23 125.08 619.42 124.02 618.81 122.73C618.19 121.45 617.89 119.82 617.89 117.86C617.89 115.9 618.21 114.11 618.86 112.51C619.51 110.91 620.42 109.54 621.6 108.4C622.78 107.26 624.22 106.37 625.92 105.74C627.62 105.11 629.53 104.79 631.64 104.79C633.61 104.79 635.66 105.06 637.8 105.61C639.94 106.15 642 106.95 643.96 108.01L639.85 116.07V116.06Z" fill="white"/>
<path d="M667.93 114.64V145.62H657.6V114.64H649.12V105.9H676.41V114.64H667.93Z" fill="white"/>
<path d="M679.36 125.76C679.36 122.81 679.9 120.06 680.99 117.52C682.08 114.97 683.59 112.75 685.52 110.86C687.45 108.96 689.76 107.48 692.45 106.41C695.14 105.34 698.09 104.8 701.33 104.8C704.57 104.8 707.48 105.34 710.18 106.41C712.88 107.48 715.21 108.96 717.16 110.86C719.11 112.76 720.63 114.98 721.72 117.52C722.81 120.07 723.35 122.81 723.35 125.76C723.35 128.71 722.81 131.46 721.72 134C720.63 136.55 719.11 138.77 717.16 140.66C715.21 142.55 712.88 144.04 710.18 145.11C707.48 146.18 704.53 146.72 701.33 146.72C698.13 146.72 695.14 146.18 692.45 145.11C689.76 144.04 687.45 142.56 685.52 140.66C683.59 138.76 682.08 136.54 680.99 134C679.9 131.45 679.36 128.71 679.36 125.76Z" fill="white"/>
<path d="M763.44 145.62H750.59L740.74 130.34V145.62H730.42V105.9H746.49C748.7 105.9 750.63 106.22 752.28 106.87C753.93 107.52 755.29 108.41 756.36 109.53C757.43 110.65 758.24 111.95 758.78 113.43C759.32 114.91 759.6 116.49 759.6 118.17C759.6 121.19 758.87 123.64 757.41 125.52C755.95 127.4 753.8 128.67 750.96 129.34L763.45 145.62H763.44ZM740.73 123.65H742.68C744.72 123.65 746.28 123.23 747.37 122.39C748.46 121.55 749 120.34 749 118.76C749 117.18 748.46 115.97 747.37 115.13C746.28 114.29 744.72 113.87 742.68 113.87H740.73V123.67V123.65Z" fill="white"/>
<path d="M790.88 114.64H778.61V121.28H790.2V130.03H778.61V136.88H790.88V145.62H768.28V105.9H790.88V114.64Z" fill="white"/>
<path d="M707.28 138.42C706.71 138.42 706.14 138.28 705.63 138.01L701.35 135.76L697.07 138.01C696.56 138.28 695.99 138.42 695.42 138.42C694.37 138.42 693.38 137.96 692.71 137.15C692.04 136.35 691.75 135.3 691.93 134.27L692.75 129.51L689.29 126.14C688.32 125.19 687.97 123.8 688.39 122.51C688.81 121.22 689.91 120.29 691.25 120.1L696.03 119.41L698.17 115.08C698.77 113.86 699.99 113.11 701.35 113.11C702.71 113.11 703.93 113.87 704.53 115.08L706.67 119.41L711.45 120.11C712.79 120.3 713.89 121.23 714.31 122.52C714.73 123.81 714.39 125.2 713.41 126.15L709.95 129.52L710.77 134.28C710.95 135.31 710.66 136.36 709.99 137.16C709.31 137.96 708.32 138.43 707.28 138.43V138.42Z" fill="#FFE11C"/>
<path d="M701.36 115.6C701.73 115.6 702.1 115.79 702.3 116.18L704.78 121.2C704.93 121.51 705.23 121.72 705.57 121.77L711.11 122.57C711.97 122.69 712.31 123.75 711.69 124.35L707.68 128.26C707.43 128.5 707.32 128.85 707.38 129.18L708.33 134.69C708.45 135.36 707.91 135.91 707.3 135.91C707.14 135.91 706.97 135.87 706.81 135.79L701.86 133.19C701.71 133.11 701.54 133.07 701.37 133.07C701.2 133.07 701.04 133.11 700.88 133.19L695.93 135.79C695.77 135.87 695.6 135.91 695.44 135.91C694.83 135.91 694.3 135.36 694.41 134.69L695.36 129.18C695.42 128.84 695.31 128.5 695.06 128.26L691.05 124.35C690.43 123.75 690.77 122.69 691.63 122.57L697.17 121.77C697.51 121.72 697.8 121.51 697.96 121.2L700.44 116.18C700.63 115.79 701 115.6 701.38 115.6M701.38 110.6C699.06 110.6 696.99 111.89 695.96 113.97L694.4 117.12L690.92 117.63C688.63 117.96 686.76 119.54 686.04 121.74C685.32 123.94 685.91 126.32 687.57 127.94L690.09 130.39L689.5 133.86C689.2 135.62 689.68 137.41 690.83 138.77C691.98 140.14 693.67 140.92 695.45 140.92C696.42 140.92 697.4 140.68 698.26 140.22L701.37 138.58L704.48 140.22C705.35 140.68 706.32 140.92 707.29 140.92C709.07 140.92 710.76 140.13 711.91 138.77C713.06 137.41 713.54 135.62 713.24 133.86L712.65 130.4L715.17 127.95C716.83 126.33 717.42 123.96 716.7 121.75C715.98 119.55 714.11 117.97 711.82 117.64L708.34 117.13L706.78 113.98C705.76 111.9 703.68 110.61 701.36 110.61L701.38 110.6Z" fill="black"/>
<path d="M135.15 54.95C135.24 54.56 135.18 54.13 134.92 53.76C131.26 48.47 120.27 35.77 100.93 38.86C99.8 39.04 99.27 40.37 99.95 41.29C101.31 43.14 102.65 44.77 103.99 46.21C97.47 44.67 89.34 44.77 80.5 49.51C79.49 50.05 79.43 51.48 80.37 52.13C82.41 53.53 84.34 54.7 86.2 55.67C79.95 57.66 73.48 60.77 67.15 65.46C65.82 66.45 66.21 68.08 67.85 68.44C76.89 70.43 84.44 71.02 91.25 70.44C89.68 72.43 88.24 74.73 86.99 77.39C86.5 78.42 87.3 79.61 88.45 79.57C98.16 79.23 104.53 76.98 109.52 72.94C108.56 75.11 107.76 77.5 107.19 80.17C106.95 81.29 108.01 82.26 109.11 81.96C125.9 77.38 130.86 69.31 135.12 55.77C135.21 55.49 135.21 55.21 135.15 54.95Z" fill="#01874C" stroke="black" stroke-width="3"/>
<path d="M130.46 55.68C129.8 69.86 131.67 79.15 145.86 89.23C146.79 89.89 148.11 89.34 148.28 88.21C148.67 85.51 148.74 82.99 148.59 80.62C151.89 86.13 157.09 90.44 166.09 94.1C167.15 94.53 168.31 93.69 168.21 92.55C167.95 89.62 167.39 86.97 166.6 84.56C172.79 87.45 180.09 89.49 189.26 90.74C190.93 90.97 191.86 89.58 190.94 88.19C186.62 81.6 181.61 76.46 176.43 72.44C178.51 72.17 180.73 71.74 183.12 71.13C184.22 70.85 184.66 69.48 183.9 68.63C177.23 61.13 169.64 58.24 162.98 57.43C164.73 56.54 166.55 55.47 168.47 54.2C169.42 53.57 169.38 52.14 168.39 51.58C151.3 42.01 136.61 50.16 131.35 53.86C130.98 54.12 130.77 54.51 130.72 54.9C130.57 55.12 130.48 55.39 130.47 55.68H130.46Z" fill="#01874C" stroke="black" stroke-width="3"/>
<path d="M123.74 59.36C128.628 59.36 132.59 55.3978 132.59 50.51C132.59 45.6223 128.628 41.66 123.74 41.66C118.852 41.66 114.89 45.6223 114.89 50.51C114.89 55.3978 118.852 59.36 123.74 59.36Z" fill="#E80E04" stroke="black" stroke-width="3"/>
<path d="M136.95 64.4401C141.838 64.4401 145.8 60.4778 145.8 55.59C145.8 50.7023 141.838 46.7401 136.95 46.7401C132.062 46.7401 128.1 50.7023 128.1 55.59C128.1 60.4778 132.062 64.4401 136.95 64.4401Z" fill="#E80E04" stroke="black" stroke-width="3"/>
<path d="M729.46 51.23C729.41 50.83 729.21 50.45 728.83 50.19C723.57 46.49 708.88 38.35 691.79 47.91C690.79 48.47 690.76 49.9 691.71 50.53C693.62 51.8 695.44 52.86 697.2 53.76C690.55 54.56 682.95 57.46 676.28 64.96C675.52 65.81 675.95 67.18 677.06 67.46C679.45 68.08 681.67 68.51 683.75 68.77C678.57 72.79 673.56 77.94 669.24 84.52C668.33 85.91 669.26 87.3 670.92 87.07C680.09 85.83 687.38 83.78 693.58 80.89C692.8 83.3 692.23 85.95 691.97 88.88C691.87 90.02 693.03 90.86 694.09 90.43C703.09 86.77 708.29 82.46 711.59 76.95C711.43 79.32 711.51 81.84 711.9 84.54C712.06 85.67 713.39 86.22 714.32 85.56C728.5 75.48 730.38 66.19 729.72 52.01C729.71 51.71 729.61 51.45 729.47 51.23H729.46Z" fill="#01874C" stroke="black" stroke-width="3"/>
<path d="M719.48 56.34C723.75 69.88 728.7 77.95 745.49 82.53C746.59 82.83 747.64 81.86 747.41 80.74C746.84 78.08 746.05 75.68 745.08 73.51C750.08 77.55 756.44 79.8 766.15 80.14C767.29 80.18 768.09 78.99 767.61 77.96C766.36 75.3 764.91 73.01 763.35 71.01C770.16 71.59 777.71 71 786.75 69.01C788.39 68.65 788.79 67.02 787.45 66.03C781.13 61.34 774.65 58.23 768.4 56.24C770.26 55.27 772.19 54.11 774.23 52.7C775.17 52.05 775.1 50.62 774.1 50.08C765.26 45.34 757.13 45.24 750.61 46.78C751.95 45.34 753.29 43.71 754.65 41.86C755.33 40.94 754.8 39.61 753.67 39.43C734.33 36.33 723.34 49.04 719.68 54.33C719.42 54.71 719.36 55.13 719.45 55.52C719.39 55.78 719.39 56.06 719.48 56.34Z" fill="#01874C" stroke="black" stroke-width="3"/>
<path d="M730.86 59.92C735.748 59.92 739.71 55.9578 739.71 51.07C739.71 46.1823 735.748 42.22 730.86 42.22C725.972 42.22 722.01 46.1823 722.01 51.07C722.01 55.9578 725.972 59.92 730.86 59.92Z" fill="#E80E04" stroke="black" stroke-width="3"/>
<path d="M718.6 59.92C723.488 59.92 727.45 55.9578 727.45 51.07C727.45 46.1823 723.488 42.22 718.6 42.22C713.712 42.22 709.75 46.1823 709.75 51.07C709.75 55.9578 713.712 59.92 718.6 59.92Z" fill="#E80E04" stroke="black" stroke-width="3"/>
</svg>
