<svg width="326" height="528" viewBox="0 0 326 528" fill="none" xmlns="http://www.w3.org/2000/svg">
<path d="M184.592 232.623C185.045 250.998 313.033 328.717 290.847 426.324C268.652 523.932 292.354 548.151 292.354 548.151L317.541 638.552L184.849 673.154L164.092 583.128L157.886 554.072C157.886 554.072 28.3795 479.374 72.5915 241.02C58.9071 151.061 51.0159 126.034 25.7428 91.2186C0.46968 56.4032 -15.223 17.0298 51.6609 29.596C118.545 42.1622 137.998 96.0422 143.269 127.22C155.364 159.231 183.143 173.933 184.599 232.602L184.592 232.623Z" fill="#FEE6C7" stroke="black" stroke-width="7.43" stroke-linecap="round" stroke-linejoin="round"/>
<g style="mix-blend-mode:multiply">
<path d="M89.3199 138.267C79.0953 154.978 59.4344 152.95 59.4344 152.95L57.6289 152.288C60.6086 162.952 63.358 175.246 66.1482 190.055C88.0367 178.484 100.103 157.301 89.3186 138.257L89.3199 138.267Z" fill="#FEE6C7"/>
</g>
<g style="mix-blend-mode:multiply">
<path d="M121.779 130.821C139.897 159.725 160.453 205.467 149.551 229.447C182.956 227.174 183.064 235.404 183.064 235.404L186.265 233.917C184.188 231.162 183.01 228.9 182.965 227.163C181.508 168.493 153.73 153.791 141.634 121.78C136.362 90.5925 116.909 36.7124 50.0254 24.1463C50.0254 24.1463 124.137 68.5536 121.778 130.812L121.779 130.821Z" fill="#FEE6C7"/>
</g>
<g style="mix-blend-mode:multiply">
<path d="M192.857 432.644C126.074 422.988 75.0613 300.298 66.7809 279.27C42.3835 487.447 157.887 554.082 157.887 554.082L164.093 583.138L184.85 673.164L317.542 638.562L292.355 548.16C292.355 548.16 268.663 523.941 290.848 426.334C306.551 357.286 247.097 298.186 210.797 263.02C254.337 329.149 265.923 443.221 192.859 432.654L192.857 432.644Z" fill="#FEE6C7"/>
</g>
<path opacity="0.7" d="M59.4574 69.1661C58.6245 56.5624 29.0688 41.9104 29.0688 41.9104C29.0688 41.9104 23.8741 37.4175 10.8601 35.6814C2.57016 46.1554 13.3982 67.2496 27.5672 86.7692C30.8145 91.2424 33.7481 95.543 36.4212 99.8559C40.0282 97.5025 43.0895 94.8944 45.4006 92.0069C45.4006 92.0069 60.2903 81.7697 59.4574 69.1661Z" fill="white"/>
<path d="M184.592 232.624C184.592 232.624 171.925 223.72 158.334 227.951L184.592 232.624Z" fill="#FEE6C7"/>
<path d="M184.592 232.624C184.592 232.624 171.925 223.72 158.334 227.951" stroke="black" stroke-width="7.43" stroke-linecap="round" stroke-linejoin="round"/>
<path d="M8.51015 37.042C8.51015 37.042 36.0077 29.6495 58.8079 66.0524C67.1086 79.3088 36.4101 99.8472 36.4101 99.8472" stroke="black" stroke-width="5" stroke-linecap="round" stroke-linejoin="round"/>
</svg>
