<svg width="297" height="489" viewBox="0 0 297 489" fill="none" xmlns="http://www.w3.org/2000/svg">
<path d="M121.091 229.585C121.499 247.96 -2.70954 331.586 24.0216 428.048C50.7627 524.51 28.2202 549.811 28.2202 549.811L7.29322 641.293L141.46 669.644L157.979 578.745L162.818 549.431C162.818 549.431 288.685 468.751 233.362 232.728C242.82 142.227 249.53 116.858 273.146 80.8976C296.761 44.9372 310.593 4.87223 244.371 20.5561C178.149 36.2399 161.24 90.9717 157.434 122.362C146.85 154.904 119.791 170.891 121.083 229.564L121.091 229.585Z" fill="#FEE6C7" stroke="black" stroke-width="7.43" stroke-linecap="round" stroke-linejoin="round"/>
<g style="mix-blend-mode:multiply">
<path d="M211.841 130.871C222.837 147.085 242.381 144.139 242.381 144.139L244.154 143.393C241.677 154.185 239.506 166.594 237.412 181.518C215.006 170.983 201.961 150.389 211.842 130.861L211.841 130.871Z" fill="#FEE6C7"/>
</g>
<g style="mix-blend-mode:multiply">
<path d="M179.069 124.953C162.324 154.674 143.932 201.328 155.945 224.771C122.47 224.064 122.748 232.29 122.748 232.29L119.481 230.955C121.426 228.106 122.497 225.792 122.461 224.054C121.169 165.381 148.228 149.394 158.812 116.852C162.618 85.4514 179.527 30.7196 245.749 15.0358C245.749 15.0358 173.798 62.8643 179.07 124.944L179.069 124.953Z" fill="#FEE6C7"/>
</g>
<g style="mix-blend-mode:multiply">
<path d="M122.2 429.773C188.458 417 233.67 292.057 240.957 270.664C275.074 477.47 162.817 549.441 162.817 549.441L157.979 578.755L141.459 669.654L7.29241 641.303L28.2194 549.821C28.2194 549.821 50.7519 524.519 24.0208 428.058C5.10229 359.821 61.7239 298.002 96.3385 261.175C55.9422 329.27 49.7094 443.76 122.199 429.783L122.2 429.773Z" fill="#FEE6C7"/>
</g>
<path opacity="0.7" d="M238.435 60.4478C238.677 47.819 267.515 31.7992 267.515 31.7992C267.515 31.7992 272.493 27.0681 285.412 24.7246C294.183 34.7989 284.355 56.377 271.115 76.5386C268.081 81.1589 265.352 85.5922 262.883 90.0255C259.17 87.8435 255.99 85.3816 253.546 82.6055C253.546 82.6055 238.194 73.0766 238.435 60.4478Z" fill="white"/>
<path d="M121.091 229.585C121.091 229.585 133.327 220.098 147.102 223.687L121.091 229.585Z" fill="#FEE6C7"/>
<path d="M121.091 229.585C121.091 229.585 133.327 220.098 147.102 223.687" stroke="black" stroke-width="7.43" stroke-linecap="round" stroke-linejoin="round"/>
<path d="M287.823 25.9737C287.823 25.9737 260.009 19.8767 238.939 57.3072C231.268 70.9376 262.894 90.0162 262.894 90.0162" stroke="black" stroke-width="5" stroke-linecap="round" stroke-linejoin="round"/>
</svg>
