<svg width="663" height="750" viewBox="0 0 663 750" fill="none" xmlns="http://www.w3.org/2000/svg">
<path d="M97.04 544.67H565.36C616.71 544.67 658.4 586.36 658.4 637.71V746.17H4.01001V637.71C4.01001 586.36 45.7 544.67 97.05 544.67H97.04Z" fill="#603813" stroke="black" stroke-width="6.86" stroke-linecap="round" stroke-linejoin="round"/>
<path d="M563.12 544.67H101.09C53.73 544.67 14.09 579.36 6.3 624.58C4.82 627.94 4 631.65 4 635.55C4 650.61 16.21 662.82 31.27 662.82C46.33 662.82 58.54 650.61 58.54 635.55C58.54 650.61 70.75 662.82 85.81 662.82C100.87 662.82 113.08 650.61 113.08 635.55C113.08 650.61 125.29 662.82 140.35 662.82C155.41 662.82 167.62 650.61 167.62 635.55C167.62 650.61 179.83 662.82 194.89 662.82C209.95 662.82 222.16 650.61 222.16 635.55C222.16 650.61 234.37 662.82 249.43 662.82C264.49 662.82 276.7 650.61 276.7 635.55C276.7 650.61 288.91 662.82 303.97 662.82C319.03 662.82 331.24 650.61 331.24 635.55C331.24 650.61 343.45 662.82 358.51 662.82C373.57 662.82 385.78 650.61 385.78 635.55C385.78 650.61 397.99 662.82 413.05 662.82C428.11 662.82 440.32 650.61 440.32 635.55C440.32 650.61 452.53 662.82 467.59 662.82C482.65 662.82 494.86 650.61 494.86 635.55C494.86 650.61 507.07 662.82 522.13 662.82C537.19 662.82 549.4 650.61 549.4 635.55C549.4 650.61 561.61 662.82 576.67 662.82C591.73 662.82 603.94 650.61 603.94 635.55C603.94 650.61 616.15 662.82 631.21 662.82C646.27 662.82 658.48 650.61 658.48 635.55H659.24C656.46 585.09 614.33 544.67 563.21 544.67H563.12Z" fill="white" stroke="black" stroke-width="7.43" stroke-linecap="round" stroke-linejoin="round"/>
<g style="mix-blend-mode:multiply">
<path d="M86.7201 612.44H574.74C574.74 612.44 627.16 615.45 627.16 572.58C610.16 555.24 587.81 544.67 563.41 544.67H101.37C76.7101 544.67 54.1601 555.48 37.0901 573.15C37.0201 574.18 34.8901 612.44 86.7201 612.44Z" fill="#CFCFCF"/>
</g>
<path d="M658.41 718.31H4.01001V746.16H658.41V718.31Z" fill="#F5BF39" stroke="black" stroke-width="6.86" stroke-linecap="round" stroke-linejoin="round"/>
<path d="M321.61 4H340.79C497.25 4 624.27 131.02 624.27 287.48V554.07C624.27 573.98 608.1 590.15 588.19 590.15H74.21C54.3 590.15 38.13 573.98 38.13 554.07V287.48C38.13 131.02 165.15 4 321.61 4Z" fill="white" stroke="black" stroke-width="7" stroke-linecap="round" stroke-linejoin="round"/>
<path d="M167.25 703.78L171.36 679.55H177.6L182.45 692.47L187.27 679.55H193.51L197.62 703.78H191.35L189.26 689.83L183.54 703.78H181.03L175.6 689.83L173.51 703.78H167.24H167.25Z" fill="black"/>
<path d="M215.72 684.89H208.23V688.94H215.3V694.28H208.23V698.46H215.72V703.8H201.93V679.57H215.72V684.91V684.89Z" fill="black"/>
<path d="M240.73 703.78H232.89L226.88 694.46V703.78H220.58V679.55H230.38C231.73 679.55 232.91 679.75 233.92 680.14C234.93 680.54 235.76 681.08 236.41 681.76C237.06 682.45 237.56 683.24 237.89 684.14C238.22 685.04 238.39 686 238.39 687.03C238.39 688.87 237.95 690.37 237.06 691.51C236.17 692.66 234.86 693.43 233.12 693.84L240.74 703.77L240.73 703.78ZM226.88 690.38H228.07C229.31 690.38 230.27 690.12 230.93 689.61C231.59 689.1 231.93 688.36 231.93 687.39C231.93 686.42 231.6 685.69 230.93 685.17C230.27 684.66 229.31 684.4 228.07 684.4H226.88V690.38Z" fill="black"/>
<path d="M263.83 703.78H255.99L249.98 694.46V703.78H243.68V679.55H253.48C254.83 679.55 256.01 679.75 257.02 680.14C258.03 680.54 258.86 681.08 259.51 681.76C260.16 682.45 260.66 683.24 260.99 684.14C261.32 685.04 261.49 686 261.49 687.03C261.49 688.87 261.05 690.37 260.16 691.51C259.27 692.66 257.96 693.43 256.22 693.84L263.84 703.77L263.83 703.78ZM249.98 690.38H251.17C252.41 690.38 253.37 690.12 254.03 689.61C254.69 689.1 255.03 688.36 255.03 687.39C255.03 686.42 254.7 685.69 254.03 685.17C253.37 684.66 252.41 684.4 251.17 684.4H249.98V690.38Z" fill="black"/>
<path d="M271.48 692.15L262.64 679.55H270.16L274.66 686.17L279.13 679.55H286.65L277.78 692.15V703.78H271.48V692.15Z" fill="black"/>
<path d="M317.89 687.65C316.43 685.87 314.63 684.98 312.49 684.98C311.55 684.98 310.67 685.15 309.87 685.49C309.07 685.83 308.38 686.3 307.8 686.89C307.22 687.48 306.77 688.18 306.43 688.99C306.1 689.8 305.93 690.68 305.93 691.63C305.93 692.58 306.1 693.48 306.43 694.3C306.76 695.11 307.22 695.82 307.81 696.42C308.4 697.02 309.09 697.49 309.88 697.83C310.67 698.17 311.53 698.34 312.45 698.34C314.46 698.34 316.27 697.48 317.88 695.77V703.23L317.24 703.45C316.28 703.79 315.38 704.04 314.54 704.21C313.7 704.37 312.88 704.45 312.07 704.45C310.4 704.45 308.8 704.13 307.26 703.5C305.73 702.87 304.38 701.98 303.21 700.83C302.04 699.68 301.11 698.32 300.4 696.75C299.69 695.18 299.34 693.46 299.34 691.59C299.34 689.72 299.69 688.02 300.38 686.46C301.08 684.91 302.01 683.57 303.18 682.44C304.35 681.31 305.7 680.44 307.25 679.8C308.79 679.17 310.41 678.85 312.1 678.85C313.06 678.85 314.01 678.95 314.94 679.16C315.87 679.36 316.85 679.68 317.88 680.11V687.63L317.89 687.65Z" fill="black"/>
<path d="M329.53 688.9H338.63V679.55H344.93V703.78H338.63V693.78H329.53V703.78H323.23V679.55H329.53V688.9Z" fill="black"/>
<path d="M370.48 703.78H362.64L356.63 694.46V703.78H350.33V679.55H360.13C361.48 679.55 362.66 679.75 363.67 680.14C364.68 680.54 365.51 681.08 366.16 681.76C366.81 682.45 367.31 683.24 367.64 684.14C367.97 685.04 368.14 686 368.14 687.03C368.14 688.87 367.7 690.37 366.81 691.51C365.92 692.66 364.61 693.43 362.87 693.84L370.49 703.77L370.48 703.78ZM356.63 690.38H357.82C359.06 690.38 360.02 690.12 360.68 689.61C361.34 689.1 361.68 688.36 361.68 687.39C361.68 686.42 361.35 685.69 360.68 685.17C360.02 684.66 359.06 684.4 357.82 684.4H356.63V690.38Z" fill="black"/>
<path d="M379.73 679.55V703.78H373.43V679.55H379.73Z" fill="black"/>
<path d="M398.44 685.75C397.75 685.19 397.07 684.78 396.38 684.51C395.69 684.24 395.03 684.11 394.39 684.11C393.58 684.11 392.91 684.3 392.4 684.69C391.89 685.08 391.63 685.58 391.63 686.2C391.63 686.63 391.76 686.98 392.02 687.26C392.28 687.54 392.61 687.78 393.03 687.98C393.45 688.18 393.92 688.36 394.44 688.51C394.97 688.66 395.48 688.82 396 688.99C398.06 689.68 399.56 690.59 400.52 691.74C401.47 692.89 401.95 694.38 401.95 696.22C401.95 697.46 401.74 698.59 401.32 699.59C400.9 700.6 400.29 701.46 399.49 702.18C398.69 702.9 397.7 703.46 396.53 703.85C395.36 704.25 394.04 704.44 392.56 704.44C389.5 704.44 386.66 703.53 384.04 701.71L386.74 696.63C387.68 697.47 388.61 698.09 389.54 698.49C390.46 698.9 391.37 699.1 392.27 699.1C393.3 699.1 394.06 698.86 394.57 698.39C395.07 697.92 395.33 697.38 395.33 696.78C395.33 696.42 395.27 696.1 395.14 695.83C395.01 695.56 394.8 695.32 394.5 695.09C394.2 694.87 393.81 694.66 393.33 694.46C392.85 694.27 392.26 694.05 391.58 693.82C390.77 693.56 389.97 693.28 389.19 692.97C388.41 692.66 387.71 692.25 387.1 691.73C386.49 691.22 386 690.57 385.62 689.79C385.24 689.01 385.06 688.02 385.06 686.82C385.06 685.62 385.26 684.53 385.65 683.56C386.05 682.59 386.6 681.75 387.32 681.05C388.04 680.35 388.92 679.81 389.96 679.43C391 679.04 392.16 678.85 393.45 678.85C394.65 678.85 395.9 679.02 397.21 679.35C398.52 679.68 399.77 680.17 400.97 680.81L398.46 685.73L398.44 685.75Z" fill="black"/>
<path d="M415.57 684.89V703.79H409.27V684.89H404.1V679.55H420.75V684.89H415.58H415.57Z" fill="black"/>
<path d="M422.77 703.78L426.88 679.55H433.12L437.97 692.47L442.79 679.55H449.03L453.14 703.78H446.87L444.78 689.83L439.06 703.78H436.55L431.12 689.83L429.03 703.78H422.76H422.77Z" fill="black"/>
<path d="M472.3 699.57H463.3L461.85 703.78H455.13L464.35 679.55H471.23L480.45 703.78H473.73L472.28 699.57H472.3ZM470.63 694.78L467.8 686.71L464.97 694.78H470.63Z" fill="black"/>
<path d="M496.85 685.75C496.16 685.19 495.48 684.78 494.79 684.51C494.1 684.24 493.44 684.11 492.8 684.11C491.99 684.11 491.32 684.3 490.81 684.69C490.3 685.08 490.04 685.58 490.04 686.2C490.04 686.63 490.17 686.98 490.43 687.26C490.69 687.54 491.02 687.78 491.44 687.98C491.86 688.18 492.33 688.36 492.85 688.51C493.38 688.66 493.89 688.82 494.41 688.99C496.47 689.68 497.97 690.59 498.93 691.74C499.88 692.89 500.36 694.38 500.36 696.22C500.36 697.46 500.15 698.59 499.73 699.59C499.31 700.6 498.7 701.46 497.9 702.18C497.1 702.9 496.11 703.46 494.94 703.85C493.77 704.25 492.45 704.44 490.97 704.44C487.91 704.44 485.07 703.53 482.45 701.71L485.15 696.63C486.09 697.47 487.02 698.09 487.95 698.49C488.87 698.9 489.78 699.1 490.68 699.1C491.71 699.1 492.47 698.86 492.98 698.39C493.48 697.92 493.74 697.38 493.74 696.78C493.74 696.42 493.68 696.1 493.55 695.83C493.42 695.56 493.21 695.32 492.91 695.09C492.61 694.87 492.22 694.66 491.74 694.46C491.26 694.27 490.67 694.05 489.99 693.82C489.18 693.56 488.38 693.28 487.6 692.97C486.82 692.66 486.12 692.25 485.51 691.73C484.9 691.22 484.41 690.57 484.03 689.79C483.65 689.01 483.47 688.02 483.47 686.82C483.47 685.62 483.67 684.53 484.06 683.56C484.46 682.59 485.01 681.75 485.73 681.05C486.45 680.35 487.33 679.81 488.37 679.43C489.41 679.04 490.57 678.85 491.86 678.85C493.06 678.85 494.31 679.02 495.62 679.35C496.93 679.68 498.18 680.17 499.38 680.81L496.87 685.73L496.85 685.75Z" fill="black"/>
<path d="M167.25 703.78L171.36 679.55H177.6L182.45 692.47L187.27 679.55H193.51L197.62 703.78H191.35L189.26 689.83L183.54 703.78H181.03L175.6 689.83L173.51 703.78H167.24H167.25Z" stroke="black" stroke-width="10" stroke-linecap="round" stroke-linejoin="round"/>
<path d="M215.72 684.89H208.23V688.94H215.3V694.28H208.23V698.46H215.72V703.8H201.93V679.57H215.72V684.91V684.89Z" stroke="black" stroke-width="10" stroke-linecap="round" stroke-linejoin="round"/>
<path d="M240.73 703.78H232.89L226.88 694.46V703.78H220.58V679.55H230.38C231.73 679.55 232.91 679.75 233.92 680.14C234.93 680.54 235.76 681.08 236.41 681.76C237.06 682.45 237.56 683.24 237.89 684.14C238.22 685.04 238.39 686 238.39 687.03C238.39 688.87 237.95 690.37 237.06 691.51C236.17 692.66 234.86 693.43 233.12 693.84L240.74 703.77L240.73 703.78ZM226.88 690.38H228.07C229.31 690.38 230.27 690.12 230.93 689.61C231.59 689.1 231.93 688.36 231.93 687.39C231.93 686.42 231.6 685.69 230.93 685.17C230.27 684.66 229.31 684.4 228.07 684.4H226.88V690.38Z" stroke="black" stroke-width="10" stroke-linecap="round" stroke-linejoin="round"/>
<path d="M263.83 703.78H255.99L249.98 694.46V703.78H243.68V679.55H253.48C254.83 679.55 256.01 679.75 257.02 680.14C258.03 680.54 258.86 681.08 259.51 681.76C260.16 682.45 260.66 683.24 260.99 684.14C261.32 685.04 261.49 686 261.49 687.03C261.49 688.87 261.05 690.37 260.16 691.51C259.27 692.66 257.96 693.43 256.22 693.84L263.84 703.77L263.83 703.78ZM249.98 690.38H251.17C252.41 690.38 253.37 690.12 254.03 689.61C254.69 689.1 255.03 688.36 255.03 687.39C255.03 686.42 254.7 685.69 254.03 685.17C253.37 684.66 252.41 684.4 251.17 684.4H249.98V690.38Z" stroke="black" stroke-width="10" stroke-linecap="round" stroke-linejoin="round"/>
<path d="M271.48 692.15L262.64 679.55H270.16L274.66 686.17L279.13 679.55H286.65L277.78 692.15V703.78H271.48V692.15Z" stroke="black" stroke-width="10" stroke-linecap="round" stroke-linejoin="round"/>
<path d="M317.89 687.65C316.43 685.87 314.63 684.98 312.49 684.98C311.55 684.98 310.67 685.15 309.87 685.49C309.07 685.83 308.38 686.3 307.8 686.89C307.22 687.48 306.77 688.18 306.43 688.99C306.1 689.8 305.93 690.68 305.93 691.63C305.93 692.58 306.1 693.48 306.43 694.3C306.76 695.11 307.22 695.82 307.81 696.42C308.4 697.02 309.09 697.49 309.88 697.83C310.67 698.17 311.53 698.34 312.45 698.34C314.46 698.34 316.27 697.48 317.88 695.77V703.23L317.24 703.45C316.28 703.79 315.38 704.04 314.54 704.21C313.7 704.37 312.88 704.45 312.07 704.45C310.4 704.45 308.8 704.13 307.26 703.5C305.73 702.87 304.38 701.98 303.21 700.83C302.04 699.68 301.11 698.32 300.4 696.75C299.69 695.18 299.34 693.46 299.34 691.59C299.34 689.72 299.69 688.02 300.38 686.46C301.08 684.91 302.01 683.57 303.18 682.44C304.35 681.31 305.7 680.44 307.25 679.8C308.79 679.17 310.41 678.85 312.1 678.85C313.06 678.85 314.01 678.95 314.94 679.16C315.87 679.36 316.85 679.68 317.88 680.11V687.63L317.89 687.65Z" stroke="black" stroke-width="10" stroke-linecap="round" stroke-linejoin="round"/>
<path d="M329.53 688.9H338.63V679.55H344.93V703.78H338.63V693.78H329.53V703.78H323.23V679.55H329.53V688.9Z" stroke="black" stroke-width="10" stroke-linecap="round" stroke-linejoin="round"/>
<path d="M370.48 703.78H362.64L356.63 694.46V703.78H350.33V679.55H360.13C361.48 679.55 362.66 679.75 363.67 680.14C364.68 680.54 365.51 681.08 366.16 681.76C366.81 682.45 367.31 683.24 367.64 684.14C367.97 685.04 368.14 686 368.14 687.03C368.14 688.87 367.7 690.37 366.81 691.51C365.92 692.66 364.61 693.43 362.87 693.84L370.49 703.77L370.48 703.78ZM356.63 690.38H357.82C359.06 690.38 360.02 690.12 360.68 689.61C361.34 689.1 361.68 688.36 361.68 687.39C361.68 686.42 361.35 685.69 360.68 685.17C360.02 684.66 359.06 684.4 357.82 684.4H356.63V690.38Z" stroke="black" stroke-width="10" stroke-linecap="round" stroke-linejoin="round"/>
<path d="M379.73 679.55V703.78H373.43V679.55H379.73Z" stroke="black" stroke-width="10" stroke-linecap="round" stroke-linejoin="round"/>
<path d="M398.44 685.75C397.75 685.19 397.07 684.78 396.38 684.51C395.69 684.24 395.03 684.11 394.39 684.11C393.58 684.11 392.91 684.3 392.4 684.69C391.89 685.08 391.63 685.58 391.63 686.2C391.63 686.63 391.76 686.98 392.02 687.26C392.28 687.54 392.61 687.78 393.03 687.98C393.45 688.18 393.92 688.36 394.44 688.51C394.97 688.66 395.48 688.82 396 688.99C398.06 689.68 399.56 690.59 400.52 691.74C401.47 692.89 401.95 694.38 401.95 696.22C401.95 697.46 401.74 698.59 401.32 699.59C400.9 700.6 400.29 701.46 399.49 702.18C398.69 702.9 397.7 703.46 396.53 703.85C395.36 704.25 394.04 704.44 392.56 704.44C389.5 704.44 386.66 703.53 384.04 701.71L386.74 696.63C387.68 697.47 388.61 698.09 389.54 698.49C390.46 698.9 391.37 699.1 392.27 699.1C393.3 699.1 394.06 698.86 394.57 698.39C395.07 697.92 395.33 697.38 395.33 696.78C395.33 696.42 395.27 696.1 395.14 695.83C395.01 695.56 394.8 695.32 394.5 695.09C394.2 694.87 393.81 694.66 393.33 694.46C392.85 694.27 392.26 694.05 391.58 693.82C390.77 693.56 389.97 693.28 389.19 692.97C388.41 692.66 387.71 692.25 387.1 691.73C386.49 691.22 386 690.57 385.62 689.79C385.24 689.01 385.06 688.02 385.06 686.82C385.06 685.62 385.26 684.53 385.65 683.56C386.05 682.59 386.6 681.75 387.32 681.05C388.04 680.35 388.92 679.81 389.96 679.43C391 679.04 392.16 678.85 393.45 678.85C394.65 678.85 395.9 679.02 397.21 679.35C398.52 679.68 399.77 680.17 400.97 680.81L398.46 685.73L398.44 685.75Z" stroke="black" stroke-width="10" stroke-linecap="round" stroke-linejoin="round"/>
<path d="M415.57 684.89V703.79H409.27V684.89H404.1V679.55H420.75V684.89H415.58H415.57Z" stroke="black" stroke-width="10" stroke-linecap="round" stroke-linejoin="round"/>
<path d="M422.77 703.78L426.88 679.55H433.12L437.97 692.47L442.79 679.55H449.03L453.14 703.78H446.87L444.78 689.83L439.06 703.78H436.55L431.12 689.83L429.03 703.78H422.76H422.77Z" stroke="black" stroke-width="10" stroke-linecap="round" stroke-linejoin="round"/>
<path d="M472.3 699.57H463.3L461.85 703.78H455.13L464.35 679.55H471.23L480.45 703.78H473.73L472.28 699.57H472.3ZM470.63 694.78L467.8 686.71L464.97 694.78H470.63V694.78Z" stroke="black" stroke-width="10" stroke-linecap="round" stroke-linejoin="round"/>
<path d="M496.85 685.75C496.16 685.19 495.48 684.78 494.79 684.51C494.1 684.24 493.44 684.11 492.8 684.11C491.99 684.11 491.32 684.3 490.81 684.69C490.3 685.08 490.04 685.58 490.04 686.2C490.04 686.63 490.17 686.98 490.43 687.26C490.69 687.54 491.02 687.78 491.44 687.98C491.86 688.18 492.33 688.36 492.85 688.51C493.38 688.66 493.89 688.82 494.41 688.99C496.47 689.68 497.97 690.59 498.93 691.74C499.88 692.89 500.36 694.38 500.36 696.22C500.36 697.46 500.15 698.59 499.73 699.59C499.31 700.6 498.7 701.46 497.9 702.18C497.1 702.9 496.11 703.46 494.94 703.85C493.77 704.25 492.45 704.44 490.97 704.44C487.91 704.44 485.07 703.53 482.45 701.71L485.15 696.63C486.09 697.47 487.02 698.09 487.95 698.49C488.87 698.9 489.78 699.1 490.68 699.1C491.71 699.1 492.47 698.86 492.98 698.39C493.48 697.92 493.74 697.38 493.74 696.78C493.74 696.42 493.68 696.1 493.55 695.83C493.42 695.56 493.21 695.32 492.91 695.09C492.61 694.87 492.22 694.66 491.74 694.46C491.26 694.27 490.67 694.05 489.99 693.82C489.18 693.56 488.38 693.28 487.6 692.97C486.82 692.66 486.12 692.25 485.51 691.73C484.9 691.22 484.41 690.57 484.03 689.79C483.65 689.01 483.47 688.02 483.47 686.82C483.47 685.62 483.67 684.53 484.06 683.56C484.46 682.59 485.01 681.75 485.73 681.05C486.45 680.35 487.33 679.81 488.37 679.43C489.41 679.04 490.57 678.85 491.86 678.85C493.06 678.85 494.31 679.02 495.62 679.35C496.93 679.68 498.18 680.17 499.38 680.81L496.87 685.73L496.85 685.75Z" stroke="black" stroke-width="10" stroke-linecap="round" stroke-linejoin="round"/>
<path d="M167.25 703.78L171.36 679.55H177.6L182.45 692.47L187.27 679.55H193.51L197.62 703.78H191.35L189.26 689.83L183.54 703.78H181.03L175.6 689.83L173.51 703.78H167.24H167.25Z" fill="white"/>
<path d="M215.72 684.89H208.23V688.94H215.3V694.28H208.23V698.46H215.72V703.8H201.93V679.57H215.72V684.91V684.89Z" fill="white"/>
<path d="M240.73 703.78H232.89L226.88 694.46V703.78H220.58V679.55H230.38C231.73 679.55 232.91 679.75 233.92 680.14C234.93 680.54 235.76 681.08 236.41 681.76C237.06 682.45 237.56 683.24 237.89 684.14C238.22 685.04 238.39 686 238.39 687.03C238.39 688.87 237.95 690.37 237.06 691.51C236.17 692.66 234.86 693.43 233.12 693.84L240.74 703.77L240.73 703.78ZM226.88 690.38H228.07C229.31 690.38 230.27 690.12 230.93 689.61C231.59 689.1 231.93 688.36 231.93 687.39C231.93 686.42 231.6 685.69 230.93 685.17C230.27 684.66 229.31 684.4 228.07 684.4H226.88V690.38Z" fill="white"/>
<path d="M263.83 703.78H255.99L249.98 694.46V703.78H243.68V679.55H253.48C254.83 679.55 256.01 679.75 257.02 680.14C258.03 680.54 258.86 681.08 259.51 681.76C260.16 682.45 260.66 683.24 260.99 684.14C261.32 685.04 261.49 686 261.49 687.03C261.49 688.87 261.05 690.37 260.16 691.51C259.27 692.66 257.96 693.43 256.22 693.84L263.84 703.77L263.83 703.78ZM249.98 690.38H251.17C252.41 690.38 253.37 690.12 254.03 689.61C254.69 689.1 255.03 688.36 255.03 687.39C255.03 686.42 254.7 685.69 254.03 685.17C253.37 684.66 252.41 684.4 251.17 684.4H249.98V690.38Z" fill="white"/>
<path d="M271.48 692.15L262.64 679.55H270.16L274.66 686.17L279.13 679.55H286.65L277.78 692.15V703.78H271.48V692.15Z" fill="white"/>
<path d="M317.89 687.65C316.43 685.87 314.63 684.98 312.49 684.98C311.55 684.98 310.67 685.15 309.87 685.49C309.07 685.83 308.38 686.3 307.8 686.89C307.22 687.48 306.77 688.18 306.43 688.99C306.1 689.8 305.93 690.68 305.93 691.63C305.93 692.58 306.1 693.48 306.43 694.3C306.76 695.11 307.22 695.82 307.81 696.42C308.4 697.02 309.09 697.49 309.88 697.83C310.67 698.17 311.53 698.34 312.45 698.34C314.46 698.34 316.27 697.48 317.88 695.77V703.23L317.24 703.45C316.28 703.79 315.38 704.04 314.54 704.21C313.7 704.37 312.88 704.45 312.07 704.45C310.4 704.45 308.8 704.13 307.26 703.5C305.73 702.87 304.38 701.98 303.21 700.83C302.04 699.68 301.11 698.32 300.4 696.75C299.69 695.18 299.34 693.46 299.34 691.59C299.34 689.72 299.69 688.02 300.38 686.46C301.08 684.91 302.01 683.57 303.18 682.44C304.35 681.31 305.7 680.44 307.25 679.8C308.79 679.17 310.41 678.85 312.1 678.85C313.06 678.85 314.01 678.95 314.94 679.16C315.87 679.36 316.85 679.68 317.88 680.11V687.63L317.89 687.65Z" fill="white"/>
<path d="M329.53 688.9H338.63V679.55H344.93V703.78H338.63V693.78H329.53V703.78H323.23V679.55H329.53V688.9Z" fill="white"/>
<path d="M370.48 703.78H362.64L356.63 694.46V703.78H350.33V679.55H360.13C361.48 679.55 362.66 679.75 363.67 680.14C364.68 680.54 365.51 681.08 366.16 681.76C366.81 682.45 367.31 683.24 367.64 684.14C367.97 685.04 368.14 686 368.14 687.03C368.14 688.87 367.7 690.37 366.81 691.51C365.92 692.66 364.61 693.43 362.87 693.84L370.49 703.77L370.48 703.78ZM356.63 690.38H357.82C359.06 690.38 360.02 690.12 360.68 689.61C361.34 689.1 361.68 688.36 361.68 687.39C361.68 686.42 361.35 685.69 360.68 685.17C360.02 684.66 359.06 684.4 357.82 684.4H356.63V690.38Z" fill="white"/>
<path d="M379.73 679.55V703.78H373.43V679.55H379.73Z" fill="white"/>
<path d="M398.44 685.75C397.75 685.19 397.07 684.78 396.38 684.51C395.69 684.24 395.03 684.11 394.39 684.11C393.58 684.11 392.91 684.3 392.4 684.69C391.89 685.08 391.63 685.58 391.63 686.2C391.63 686.63 391.76 686.98 392.02 687.26C392.28 687.54 392.61 687.78 393.03 687.98C393.45 688.18 393.92 688.36 394.44 688.51C394.97 688.66 395.48 688.82 396 688.99C398.06 689.68 399.56 690.59 400.52 691.74C401.47 692.89 401.95 694.38 401.95 696.22C401.95 697.46 401.74 698.59 401.32 699.59C400.9 700.6 400.29 701.46 399.49 702.18C398.69 702.9 397.7 703.46 396.53 703.85C395.36 704.25 394.04 704.44 392.56 704.44C389.5 704.44 386.66 703.53 384.04 701.71L386.74 696.63C387.68 697.47 388.61 698.09 389.54 698.49C390.46 698.9 391.37 699.1 392.27 699.1C393.3 699.1 394.06 698.86 394.57 698.39C395.07 697.92 395.33 697.38 395.33 696.78C395.33 696.42 395.27 696.1 395.14 695.83C395.01 695.56 394.8 695.32 394.5 695.09C394.2 694.87 393.81 694.66 393.33 694.46C392.85 694.27 392.26 694.05 391.58 693.82C390.77 693.56 389.97 693.28 389.19 692.97C388.41 692.66 387.71 692.25 387.1 691.73C386.49 691.22 386 690.57 385.62 689.79C385.24 689.01 385.06 688.02 385.06 686.82C385.06 685.62 385.26 684.53 385.65 683.56C386.05 682.59 386.6 681.75 387.32 681.05C388.04 680.35 388.92 679.81 389.96 679.43C391 679.04 392.16 678.85 393.45 678.85C394.65 678.85 395.9 679.02 397.21 679.35C398.52 679.68 399.77 680.17 400.97 680.81L398.46 685.73L398.44 685.75Z" fill="white"/>
<path d="M415.57 684.89V703.79H409.27V684.89H404.1V679.55H420.75V684.89H415.58H415.57Z" fill="white"/>
<path d="M422.77 703.78L426.88 679.55H433.12L437.97 692.47L442.79 679.55H449.03L453.14 703.78H446.87L444.78 689.83L439.06 703.78H436.55L431.12 689.83L429.03 703.78H422.76H422.77Z" fill="white"/>
<path d="M472.3 699.57H463.3L461.85 703.78H455.13L464.35 679.55H471.23L480.45 703.78H473.73L472.28 699.57H472.3ZM470.63 694.78L467.8 686.71L464.97 694.78H470.63Z" fill="white"/>
<path d="M496.85 685.75C496.16 685.19 495.48 684.78 494.79 684.51C494.1 684.24 493.44 684.11 492.8 684.11C491.99 684.11 491.32 684.3 490.81 684.69C490.3 685.08 490.04 685.58 490.04 686.2C490.04 686.63 490.17 686.98 490.43 687.26C490.69 687.54 491.02 687.78 491.44 687.98C491.86 688.18 492.33 688.36 492.85 688.51C493.38 688.66 493.89 688.82 494.41 688.99C496.47 689.68 497.97 690.59 498.93 691.74C499.88 692.89 500.36 694.38 500.36 696.22C500.36 697.46 500.15 698.59 499.73 699.59C499.31 700.6 498.7 701.46 497.9 702.18C497.1 702.9 496.11 703.46 494.94 703.85C493.77 704.25 492.45 704.44 490.97 704.44C487.91 704.44 485.07 703.53 482.45 701.71L485.15 696.63C486.09 697.47 487.02 698.09 487.95 698.49C488.87 698.9 489.78 699.1 490.68 699.1C491.71 699.1 492.47 698.86 492.98 698.39C493.48 697.92 493.74 697.38 493.74 696.78C493.74 696.42 493.68 696.1 493.55 695.83C493.42 695.56 493.21 695.32 492.91 695.09C492.61 694.87 492.22 694.66 491.74 694.46C491.26 694.27 490.67 694.05 489.99 693.82C489.18 693.56 488.38 693.28 487.6 692.97C486.82 692.66 486.12 692.25 485.51 691.73C484.9 691.22 484.41 690.57 484.03 689.79C483.65 689.01 483.47 688.02 483.47 686.82C483.47 685.62 483.67 684.53 484.06 683.56C484.46 682.59 485.01 681.75 485.73 681.05C486.45 680.35 487.33 679.81 488.37 679.43C489.41 679.04 490.57 678.85 491.86 678.85C493.06 678.85 494.31 679.02 495.62 679.35C496.93 679.68 498.18 680.17 499.38 680.81L496.87 685.73L496.85 685.75Z" fill="white"/>
<g filter="url(#filter0_i_25_3535)">
<path d="M331.69 25.5C259.25 25.5 190.94 53.92 139.32 105.53C87.71 157.15 59.29 225.46 59.29 297.9V553.68C59.29 562.85 66.75 570.3 75.91 570.3H587.46C596.63 570.3 604.08 562.84 604.08 553.68V297.9C604.08 225.46 575.66 157.15 524.05 105.54C472.44 53.92 404.12 25.5 331.69 25.5Z" fill="url(#paint0_linear_25_3535)"/>
<path d="M331.69 25.5C259.25 25.5 190.94 53.92 139.32 105.53C87.71 157.15 59.29 225.46 59.29 297.9V553.68C59.29 562.85 66.75 570.3 75.91 570.3H587.46C596.63 570.3 604.08 562.84 604.08 553.68V297.9C604.08 225.46 575.66 157.15 524.05 105.54C472.44 53.92 404.12 25.5 331.69 25.5Z" fill="url(#paint1_linear_25_3535)" fill-opacity="0.2"/>
</g>
<defs>
<filter id="filter0_i_25_3535" x="59.29" y="25.5" width="544.79" height="548.8" filterUnits="userSpaceOnUse" color-interpolation-filters="sRGB">
<feFlood flood-opacity="0" result="BackgroundImageFix"/>
<feBlend mode="normal" in="SourceGraphic" in2="BackgroundImageFix" result="shape"/>
<feColorMatrix in="SourceAlpha" type="matrix" values="0 0 0 0 0 0 0 0 0 0 0 0 0 0 0 0 0 0 127 0" result="hardAlpha"/>
<feOffset dy="4"/>
<feGaussianBlur stdDeviation="17"/>
<feComposite in2="hardAlpha" operator="arithmetic" k2="-1" k3="1"/>
<feColorMatrix type="matrix" values="0 0 0 0 1 0 0 0 0 1 0 0 0 0 1 0 0 0 0.8 0"/>
<feBlend mode="normal" in2="shape" result="effect1_innerShadow_25_3535"/>
</filter>
<linearGradient id="paint0_linear_25_3535" x1="331.685" y1="25.5" x2="331.685" y2="570.3" gradientUnits="userSpaceOnUse">
<stop stop-color="#24C0F1"/>
<stop offset="0.59375" stop-color="#86D8D8" stop-opacity="0"/>
<stop offset="1" stop-color="#D3E2E7" stop-opacity="0.875"/>
</linearGradient>
<linearGradient id="paint1_linear_25_3535" x1="541.79" y1="343" x2="99.79" y2="344.5" gradientUnits="userSpaceOnUse">
<stop stop-color="#4BB8BF" stop-opacity="0"/>
<stop offset="0.338542" stop-color="#52A2EC"/>
<stop offset="0.661458" stop-color="#4EAED4" stop-opacity="0.465909"/>
<stop offset="0.927083" stop-color="#4BB8BF" stop-opacity="0"/>
</linearGradient>
</defs>
</svg>
